<svg id="Capa_1" data-name="Capa 1" xmlns="http://www.w3.org/2000/svg" viewBox="0 0 1000 600"><defs><style>.cls-1{fill:#e0e0e0}.cls-3{fill:#fff}.cls-4{fill:#ebebeb}.cls-5{fill:#263238}.cls-6{fill:#fafafa}.cls-7{fill:#0f4c81}.cls-8{opacity:.2}.cls-9{fill:#455a64}.cls-10{fill:#ffbe9d}.cls-11{opacity:.6}.cls-12{fill:#eb996e}.cls-13{opacity:.3}</style></defs><path class="cls-1" d="M148.29 69.96h118.2v171.33h-118.2z"/><path style="fill:#f5f5f5" d="M142.37 69.96h118.2v171.33h-118.2z"/><path class="cls-3" d="M157.05 88.52h88.83v134.22h-88.83z"/><path class="cls-1" d="M245.89 222.74v-9.92c0-6.43 0-15.81-.08-27.65 0-23.67-.09-57.18-.15-96.65l.3.3h-88.83l.32-.32c0 50.63 0 97.32-.06 134.22l-.26-.26 64.66.14 17.87.06h6.31-6.21l-17.81.06-64.82.14h-.25v-.26c0-36.9 0-83.59-.07-134.22v-.18h89.45v.29c-.06 39.55-.11 73.13-.14 96.84 0 11.82-.06 21.17-.08 27.59v9.17c0 .44-.15.65-.15.65Z"/><path class="cls-1" d="M260.9 70a19.85 19.85 0 0 1-2.1 3c-1.38 1.83-3.32 4.33-5.55 7s-4.3 5.09-5.84 6.79a22.08 22.08 0 0 1-2.6 2.66 21.11 21.11 0 0 1 2.25-3l5.69-6.91c2.16-2.62 4.11-5 5.69-6.91A22.89 22.89 0 0 1 260.9 70Z"/><path class="cls-3" d="M246.34 222.31a110.38 110.38 0 0 0 15.49 19.38"/><path class="cls-1" d="M261.83 241.69a18.57 18.57 0 0 1-2.7-2.46 86.14 86.14 0 0 1-5.84-6.59 83.49 83.49 0 0 1-5.15-7.16 17.94 17.94 0 0 1-1.8-3.17 25.09 25.09 0 0 1 2.18 2.92c1.3 1.83 3.13 4.33 5.27 7s4.18 5 5.67 6.69a22.9 22.9 0 0 1 2.37 2.77Z"/><path class="cls-3" d="m142.35 241.16 15.48-19.1"/><path class="cls-1" d="M157.83 222.06c.14.11-3.21 4.48-7.49 9.75s-7.85 9.46-8 9.35 3.22-4.48 7.49-9.75 7.87-9.41 8-9.35ZM142.37 70c.14-.11 3.5 3.92 7.51 9s7.15 9.27 7 9.38-3.5-3.91-7.51-9-7.14-9.31-7-9.38Zm46.09 45.77h29.74v84.45h-29.74zM425.85 45v75.03H318.09l-3.88-74.51L425.85 45z"/><path class="cls-3" transform="rotate(-90 368.09 82.7)" d="M330.92 28.82h74.35v107.76h-74.35z"/><path class="cls-1" d="M422.48 120.38H313.7V45h108.78Zm-107.76-1h106.74V46H314.72Z"/><path class="cls-3" d="M325.88 54.76h84.42v55.87h-84.42z"/><path class="cls-1" d="M410.3 54.76h-6.25l-17.4.07-60.77.17.24-.25v55.87l-.27-.26h84.42l-.21.21c0-17 .08-30.94.11-40.65 0-4.85 0-8.64.05-11.24v-4 15.11c0 9.74.06 23.73.11 40.78v.22h-.21l-84.42.05h-.27V54.46h.24l60.93.12 17.34.06h5.76Z"/><path class="cls-1" d="M314.21 45.32a8.86 8.86 0 0 1 1.85 1.2c1.1.79 2.61 1.92 4.23 3.22s3 2.52 4 3.44a8.88 8.88 0 0 1 1.54 1.58c-.1.11-2.69-2-5.93-4.61a59.51 59.51 0 0 1-5.69-4.83Zm107.79.2a51.82 51.82 0 0 1-5.67 4.83 51.56 51.56 0 0 1-6 4.41 54.55 54.55 0 0 1 5.67-4.83 53 53 0 0 1 6-4.41Z"/><path class="cls-3" d="m421.88 119.88-12-9.74"/><path class="cls-1" d="M409.87 110.14a58 58 0 0 1 6.13 4.66 55.61 55.61 0 0 1 5.84 5.08 57.5 57.5 0 0 1-6.17-4.66 55.5 55.5 0 0 1-5.8-5.08Zm-95.66 9.73a51.36 51.36 0 0 1 5.61-4.78 52.6 52.6 0 0 1 5.94-4.36 50.09 50.09 0 0 1-5.61 4.78 51.13 51.13 0 0 1-5.94 4.36Z"/><path class="cls-1" transform="rotate(-90 369.58 81.52)" d="M360.23 54.96h18.71v53.12h-18.71z"/><path class="cls-4" d="M864.9 381.22s-9.68-4.51-17.27 18.17-9.84 35.44-9.84 35.44-2.18 4.84-5.64 2.41-8.84-10-13.78-7.75c-5.12 2.33-6 8.56-3.65 17.17s6.74 27.68 7.13 29.41-.21 4.36-2.84 3.08-18.61-14.48-24.42-6.52 4.63 30.89 5.72 33.42.75 3.73-.41 4.57-6.1-4.11-10.8-7.68-10.78-6.88-13.75-2-1.43 23 20 49.66l10.76 11.7 15.63-3.24c33-8.95 44.92-22.74 45.38-28.43s-6.41-6.57-12.31-6.44-12.81 1.23-13.25-.13 0-2.53 2.35-3.94 24.29-13.84 24.26-23.7-20.73-8.54-23.6-9.05-1.8-3-.49-4.17 16.09-14 23-19.61 9.9-11.16 7.13-16.05c-2.68-4.71-11.48-1.75-15.71-1.81s-3.15-5.26-3.15-5.26 5.67-11.66 12.84-34.47-3.58-24.85-3.58-24.85"/><path class="cls-1" d="M804.07 565.49c5.33-16.73 15.31-46.32 23.75-71.76s16-48.47 21.47-65.18l6.4-19.79c.75-2.32 1.34-4.13 1.74-5.38.2-.59.35-1.06.47-1.39a4.21 4.21 0 0 1 .17-.47 4.77 4.77 0 0 1-.13.48c-.1.34-.24.81-.41 1.41-.39 1.26-.95 3.08-1.66 5.41-1.44 4.7-3.58 11.48-6.25 19.84-5.33 16.74-12.9 39.79-21.33 65.23s-18.47 55-23.89 71.71"/><path class="cls-1" d="M825.47 440.37a5.22 5.22 0 0 1 .55 1c.34.66.79 1.63 1.33 2.83 1.09 2.41 2.51 5.77 4 9.51l3.79 9.58c.47 1.15.86 2.12 1.17 2.89a5.24 5.24 0 0 1 .39 1.09 5.53 5.53 0 0 1-.56-1c-.33-.66-.78-1.63-1.32-2.83-1.06-2.42-2.44-5.8-3.93-9.54l-3.89-9.55-1.18-2.89a4.77 4.77 0 0 1-.35-1.09Zm12.73 26.97c-.06-.12 6.74-3.35 15.19-7.21s15.34-6.88 15.39-6.76-6.74 3.35-15.19 7.21-15.34 6.88-15.39 6.76Zm-14.72 38.48a6 6 0 0 1 1.15-.23l3.16-.46c2.66-.39 6.33-.95 10.37-1.71s7.66-1.57 10.28-2.18l3.11-.71a5.36 5.36 0 0 1 1.16-.21 6 6 0 0 1-1.11.39c-.72.22-1.77.53-3.07.87-2.61.7-6.23 1.57-10.28 2.32s-7.74 1.28-10.42 1.58c-1.34.15-2.43.25-3.18.31a5 5 0 0 1-1.17.03ZM806.6 484a5.14 5.14 0 0 1 .75.79c.51.62 1.14 1.37 1.89 2.26 1.58 1.93 3.74 4.6 6.1 7.58s4.47 5.69 6 7.66l1.77 2.36a4.72 4.72 0 0 1 .6.91 4.58 4.58 0 0 1-.75-.79l-1.89-2.26c-1.58-1.92-3.74-4.6-6.1-7.58s-4.47-5.68-6-7.66l-1.77-2.36a4.1 4.1 0 0 1-.6-.91Zm-17.31 32.29a6.87 6.87 0 0 1 1 1c.63.76 1.45 1.73 2.43 2.89 2 2.45 4.84 5.86 7.9 9.65s5.81 7.23 7.78 9.74l2.31 3a7.69 7.69 0 0 1 .8 1.14 7.63 7.63 0 0 1-1-1c-.63-.76-1.45-1.73-2.43-2.89-2-2.46-4.84-5.87-7.9-9.65s-5.81-7.23-7.78-9.74l-2.31-3a7.38 7.38 0 0 1-.8-1.14Zm21.82 26.61a8.21 8.21 0 0 1 1.45-.33l4-.73c3.36-.61 8-1.49 13.09-2.59s9.68-2.22 13-3l3.93-1a8 8 0 0 1 1.45-.3 9.63 9.63 0 0 1-1.4.49c-.92.28-2.24.68-3.89 1.13-3.29.92-7.87 2.1-13 3.2s-9.75 1.93-13.13 2.46c-1.69.26-3.06.46-4 .57a9.26 9.26 0 0 1-1.5.1Z"/><path class="cls-5" d="M893.7 565c0 .18-177 .33-395.33.33S103 565.21 103 565s177-.34 395.36-.34 395.34.18 395.34.34Z"/><path class="cls-1" d="M646.67 563.82h67.14l-31.3-269.72-35.84 269.72z"/><path class="cls-6" d="M316.37 294.1 272.67 567l372.94 4.86 36.9-277.76H316.37z"/><path class="cls-4" d="M665.9 419.12H296.35l8.05-50.26h368.18l-6.68 50.26z"/><path class="cls-5" d="M665.93 419.15H296.31l8.05-50.29h368.25Zm-369.54-.06h369.48l6.67-50.19H304.43Z"/><path class="cls-7" d="m316.37 294.1-11.97 74.76h368.18l9.93-74.76H316.37z"/><path class="cls-5" d="m316.37 294.1 366.14-.31h.35l-.05.35c-10.79 81.31-23 173.52-36 270.92v.29h-4.49L273 565.29h-.33l.06-.32c26.43-164 43.29-268.63 43.65-270.87-.35 2.24-17 106.88-43.11 271l-.27-.32 369.33-.06h4.19l-.33.29c13-97.39 25.22-189.6 36-270.91l.3.34Z"/><path class="cls-5" d="M672.58 368.86c0 .19-82.43.34-184.08.34s-184.1-.15-184.1-.34 82.41-.33 184.1-.33 184.08.15 184.08.33Zm-6.68 50.26c0 .19-82.89.34-185.12.34s-185.13-.15-185.13-.34 82.87-.34 185.13-.34 185.12.15 185.12.34Zm-7.52 46.24c0 .18-82.89.33-185.12.33s-185.13-.15-185.13-.33S371 465 473.26 465s185.12.17 185.12.36Zm-7.52 46.24c0 .18-82.89.33-185.11.33s-185.14-.15-185.14-.33 82.87-.34 185.14-.34 185.11.15 185.11.34Z"/><path class="cls-5" d="M325 565.42c-.19 0 6.58-44 15.11-98.32s15.6-98.27 15.78-98.24-6.58 44.05-15.12 98.34-15.56 98.25-15.77 98.22Zm57 0c-.18 0 6.59-44 15.12-98.32s15.6-98.27 15.78-98.24-6.58 44.05-15.12 98.34-15.59 98.25-15.78 98.22Zm53-1.96c-.18 0 6.52-43.62 15-97.35s15.44-97.28 15.63-97.25-6.52 43.61-15 97.36-15.5 97.27-15.63 97.24Zm52.34 1.54c-.18 0 6.57-44 15.08-98.12s15.57-98.06 15.75-98-6.57 44-15.08 98.13S487.52 565 487.34 565Zm52.66 0c-.19 0 6.57-44 15.08-98.12s15.56-98.06 15.75-98-6.57 44-15.09 98.13S540.16 565 540 565Zm52.57.3c-.19 0 6.58-44 15.1-98.27s15.59-98.2 15.77-98.17-6.58 44-15.11 98.28-15.58 98.19-15.76 98.16Z"/><path d="M559.45 372.38c6.34-2.81 10.3-9.42 11.95-16.16s1.38-13.77 1.61-20.71 1.07-14.1 4.62-20.06c2.1-3.53 5-6.46 7.38-9.84s4.06-7.51 3.2-11.52l-39.66.2Z" class="cls-8"/><path class="cls-5" d="M395 422.84a2.09 2.09 0 0 1-.39.46l-1.19 1.25c-1.05 1.06-2.58 2.58-4.5 4.44-3.85 3.72-9.24 8.76-15.36 14.16s-11.79 10.13-15.95 13.48c-2.09 1.68-3.79 3-5 3.92l-1.38 1c-.32.23-.49.34-.51.32a2.69 2.69 0 0 1 .43-.43l1.3-1.13 4.83-4.08c4.09-3.44 9.71-8.22 15.82-13.61s11.55-10.38 15.47-14l4.65-4.29 1.28-1.15c.28-.18.44-.36.5-.34Z"/><path class="cls-5" d="M392.05 462.43a12.82 12.82 0 0 1-1.54-1.52l-4-4.3c-3.48-3.7-8.14-8.67-13.29-14.17l-13.42-14.05-4.07-4.26a13.4 13.4 0 0 1-1.43-1.63 12.67 12.67 0 0 1 1.62 1.44c1 1 2.45 2.36 4.22 4.11 3.53 3.51 8.35 8.41 13.57 13.93s9.84 10.59 13.15 14.31c1.65 1.87 3 3.38 3.87 4.44a14.83 14.83 0 0 1 1.32 1.7Z"/><path class="cls-7" d="M405.81 434.68s.12-.34.4-1a15.91 15.91 0 0 1 1.55-2.73 19.73 19.73 0 0 1 9.55-7.12 19.11 19.11 0 0 1 4-1 18.77 18.77 0 0 1 4.58-.13 22.52 22.52 0 0 1 9.79 3.34 26 26 0 0 1 8.44 8.37 21.85 21.85 0 0 1 3.52 12.8 14.79 14.79 0 0 1-2.2 6.87 17.54 17.54 0 0 1-5.31 5.37 25.69 25.69 0 0 1-15.31 4 26.22 26.22 0 0 1-8.25-1.8 19.62 19.62 0 0 1-7.22-4.89 16.54 16.54 0 0 1-2.48-3.74 16.12 16.12 0 0 1-1.32-4.37 20.79 20.79 0 0 1 .8-9.18A25.25 25.25 0 0 1 418.32 425a22 22 0 0 1 19.39-.9 20.35 20.35 0 0 1 8.12 6.22 19.54 19.54 0 0 1 3.84 9.66 18.92 18.92 0 0 1-1.67 10.38 17.79 17.79 0 0 1-3.06 4.43 20.6 20.6 0 0 1-4.26 3.34 26.07 26.07 0 0 1-20.68 1.94 23.56 23.56 0 0 1-9-5.2 16.62 16.62 0 0 1-5-8.9 14.69 14.69 0 0 1 1.36-9.93 12.37 12.37 0 0 1 3.26-3.82 15.4 15.4 0 0 1 4.39-2.31 27.65 27.65 0 0 1 9.59-1.27 36.57 36.57 0 0 1 9.35 1.31 19.88 19.88 0 0 1 8.05 4.35 14.71 14.71 0 0 1 4.37 7.82 17 17 0 0 1-.51 8.69 18.09 18.09 0 0 1-4.49 7.15 22.19 22.19 0 0 1-14.45 6.29 19.26 19.26 0 0 1-7.47-1.09 15 15 0 0 1-6-4 16.42 16.42 0 0 1-3.5-5.93 17.5 17.5 0 0 1-.94-6.47 17.09 17.09 0 0 1 4.57-10.87 20.37 20.37 0 0 1 8.67-5.61 19.87 19.87 0 0 1 8.66-.83 23.36 23.36 0 0 1 11.09 4.49 22.13 22.13 0 0 1 2.39 2c.49.5.73.77.73.77l-.78-.72a26.89 26.89 0 0 0-2.42-2 23.45 23.45 0 0 0-11-4.32 19.77 19.77 0 0 0-17 6.43 16.66 16.66 0 0 0-4.42 10.63 17.05 17.05 0 0 0 .94 6.31 15.88 15.88 0 0 0 3.42 5.76 14.58 14.58 0 0 0 5.85 3.84 19.23 19.23 0 0 0 7.28 1 21.66 21.66 0 0 0 14.01-6.07 17.43 17.43 0 0 0 4.34-6.93 16.37 16.37 0 0 0 .48-8.4 14.05 14.05 0 0 0-4.2-7.49 19.14 19.14 0 0 0-7.88-4.2 36 36 0 0 0-9.19-1.28 27.13 27.13 0 0 0-9.37 1.24 12.76 12.76 0 0 0-7.29 5.84 14.05 14.05 0 0 0-1.29 9.49 15.94 15.94 0 0 0 4.84 8.54 22.85 22.85 0 0 0 8.76 5.05 25.41 25.41 0 0 0 20.18-1.88 19.86 19.86 0 0 0 4.11-3.23 17 17 0 0 0 2.95-4.25A18.31 18.31 0 0 0 449 440a18.88 18.88 0 0 0-3.71-9.33 19.58 19.58 0 0 0-7.85-6 21.41 21.41 0 0 0-18.83.86A24.67 24.67 0 0 0 407 439.64a20.2 20.2 0 0 0-.79 8.91 15.57 15.57 0 0 0 1.26 4.2 15.9 15.9 0 0 0 2.38 3.61 19.27 19.27 0 0 0 7 4.75 25.93 25.93 0 0 0 8.07 1.77 25.18 25.18 0 0 0 15-3.85 15.48 15.48 0 0 0 7.32-11.85 21.38 21.38 0 0 0-3.41-12.53 25.83 25.83 0 0 0-8.27-8.28 22.43 22.43 0 0 0-9.66-3.37 19.27 19.27 0 0 0-4.51.09 20.38 20.38 0 0 0-13.52 7.91 16.84 16.84 0 0 0-1.6 2.68c-.27.68-.46 1-.46 1Z"/><path class="cls-5" d="M440.71 470.26c.12.14-10.11 8.87-22.84 19.51s-23.14 19.14-23.26 19 10.1-8.87 22.83-19.51 23.15-19.15 23.27-19Z"/><path class="cls-5" d="M442.93 507.62a13.32 13.32 0 0 1-1.71-1.22l-4.53-3.54c-3.8-3-9-7.21-14.76-11.87s-10.92-8.92-14.65-12l-4.38-3.7a15.22 15.22 0 0 1-1.56-1.43 11.83 11.83 0 0 1 1.72 1.23l4.53 3.53c3.8 3 9 7.21 14.76 11.88s10.92 8.91 14.64 12l4.39 3.7a13.11 13.11 0 0 1 1.55 1.42Zm105.33-36.87c.12.15-9.66 7.63-21.83 16.71s-22.13 16.33-22.24 16.18 9.67-7.64 21.81-16.71 22.15-16.33 22.26-16.18Z"/><path class="cls-5" d="M552.06 502.45c-.1.16-10.48-6.28-23.18-14.37s-22.88-14.79-22.82-14.95 10.48 6.28 23.18 14.38 22.92 14.79 22.82 14.94Z"/><path class="cls-7" d="M442.38 565c-.13-.13 10-10.77 22.67-23.75s23-23.42 23.15-23.29-10 10.76-22.67 23.76-23.02 23.44-23.15 23.28Z"/><path class="cls-7" d="M485.3 565s-.16-.14-.42-.44l-1.09-1.35-4-5c-3.37-4.2-8.14-9.9-13.66-16s-10.77-11.34-14.64-15.08l-4.59-4.42-1.24-1.21c-.28-.29-.42-.44-.4-.46a2.34 2.34 0 0 1 .49.36l1.33 1.11c1.14 1 2.76 2.44 4.74 4.27 3.95 3.66 9.26 8.9 14.81 15s10.25 11.85 13.53 16.12c1.64 2.14 2.94 3.89 3.81 5.12l1 1.43a2.2 2.2 0 0 1 .33.55Z"/><path class="cls-4" d="M379.83 510.83s.41 31.65-7.58 50.61l-48.69-8.31s14.67-30 10.67-46.66Z"/><path class="cls-7" d="M379.82 509.64S373.71 548.46 370 560l-48.41-9.55s10-37.57 9.82-48Z"/><path class="cls-3" d="M336.32 519.87c0 .18 7.19 1.85 16.14 3.73s16.24 3.27 16.28 3.09-7.19-1.85-16.14-3.73-16.24-3.27-16.28-3.09Zm-1.24 8.23c0 .18 7.19 1.85 16.14 3.73s16.25 3.27 16.28 3.09-7.19-1.84-16.14-3.73-16.24-3.27-16.28-3.09Zm7.09 9.31a11.49 11.49 0 0 0 2.66.8c1.66.41 4 .93 6.51 1.47s4.86 1 6.55 1.28a11.7 11.7 0 0 0 2.75.34 11.85 11.85 0 0 0-2.66-.79c-1.66-.42-4-.94-6.51-1.47s-4.86-1-6.55-1.28a11.46 11.46 0 0 0-2.75-.35Z"/><path class="cls-4" d="M610.16 421.93s5 30.85-.06 50.53l-48.76-1s10-31.42 3.66-47.12Z"/><path class="cls-9" d="M610 420.78s-.33 38.79-2.3 50.63l-48.7-2.3s4.27-38.14 2.63-48.33Z"/><path class="cls-3" d="M568.49 438c0 .18 7.33.34 16.36.35s16.36-.12 16.36-.29-7.33-.34-16.36-.36-16.36.16-16.36.3Zm.51 8.24c0 .18 7.32.34 16.35.36s16.36-.12 16.36-.3-7.32-.34-16.36-.35-16.35.12-16.35.29Zm8.69 7.58a11.53 11.53 0 0 0 2.73.23c1.68.06 4 .1 6.58.11s4.91 0 6.6-.09a11.44 11.44 0 0 0 2.73-.22 11.9 11.9 0 0 0-2.73-.24c-1.69-.06-4-.1-6.59-.1s-4.91 0-6.59.08a11.53 11.53 0 0 0-2.73.23Z"/><path class="cls-5" d="M620.55 333c-9.1 0-18.26-5.7-23.08-14.68a43.8 43.8 0 0 1-4.11-29.13c2.67-12.91 11.2-23.44 21.73-26.81 9-2.88 25-1.25 32.51 11.35a38.31 38.31 0 0 1 5.23 20.39 3.87 3.87 0 0 1-7.72-.51 30.9 30.9 0 0 0-4.11-15.92c-5.83-9.73-18.59-9.54-23.52-8-9 2.88-14.79 12.64-16.53 21a36 36 0 0 0 3.37 23.91c3.8 7.09 11.49 11.5 18.31 10.45a3.86 3.86 0 1 1 1.17 7.64 21.71 21.71 0 0 1-3.25.31ZM371 333c-9.1 0-18.26-5.7-23.07-14.68a43.73 43.73 0 0 1-4.12-29.13c2.25-10.87 9.88-23.39 21.84-26.85a28.51 28.51 0 0 1 17.55.9l-2.78 7.21a20.78 20.78 0 0 0-12.62-.68c-8.87 2.57-14.64 12.39-16.42 21a35.92 35.92 0 0 0 3.36 23.91c3.81 7.1 11.51 11.5 18.31 10.45l1.17 7.64a21.71 21.71 0 0 1-3.22.23Z"/><path class="cls-7" d="m617.31 294.31-3.55 19.47h52.32l4.65-19.28-53.42-.19z"/><path class="cls-5" d="M384.21 329.92a8.32 8.32 0 1 1-8.31-8.32 8.32 8.32 0 0 1 8.31 8.32Zm249.33 0a8.32 8.32 0 1 1-8.32-8.32 8.33 8.33 0 0 1 8.32 8.32Z"/><path class="cls-10" d="m496.22 168.82-13.68 51.91-47.23 5.06v8.39l66.37 2.33 12.47-58.23-17.93-9.46z"/><path class="cls-5" d="M516.15 237.88s-73.8-3.51-94.82 12.94-10.92 43.28-10.92 43.28l118.78-.32 10.48-60.19Z"/><path class="cls-9" d="M528.69 277.61a7.58 7.58 0 0 1-1.06-.08c-.69-.07-1.72-.18-3-.35-2.62-.33-6.42-.86-11.08-1.65a316.78 316.78 0 0 1-36-8.33c-6.93-2.05-13.48-4.12-19.54-5.62a85.54 85.54 0 0 0-16.32-2.6 49.08 49.08 0 0 0-11.12.63c-1.31.17-2.29.5-3 .61a7.28 7.28 0 0 1-1.05.2 4.85 4.85 0 0 1 1-.33 29.59 29.59 0 0 1 3-.73 46.34 46.34 0 0 1 11.19-.85 83.29 83.29 0 0 1 16.4 2.49c6.09 1.47 12.67 3.53 19.58 5.58a353.32 353.32 0 0 0 35.91 8.5c4.65.85 8.43 1.46 11 1.86l3 .48a5.14 5.14 0 0 1 1.09.19Zm-68.59-16.38c-.15.16-2.62-2.52-6.54-4.54s-7.5-2.58-7.46-2.79a6.54 6.54 0 0 1 2.37.23 21.67 21.67 0 0 1 5.4 2 21.1 21.1 0 0 1 4.69 3.33 6.43 6.43 0 0 1 1.54 1.77Z"/><path class="cls-7" d="m524 398.3 1 31-6.29 24.77a3.18 3.18 0 0 0 2.52 3.91 3.17 3.17 0 0 0 2.78-.85c4.7-4.58 21.88-21.54 21.68-23.8-.23-2.63 1.13-32.8 1.13-32.8Z"/><g class="cls-11"><path class="cls-3" d="m521.17 458 24.44-26.75v1.32a4.78 4.78 0 0 1-1.11 3.11c-1.95 2.33-7.47 8.66-20.48 21.47a3.15 3.15 0 0 1-2.87.85Z"/></g><g class="cls-11"><path class="cls-3" d="M539.15 421.3a1.93 1.93 0 0 0-.5 2.52 1.85 1.85 0 0 0 2.49.52 2 2 0 0 0 .52-2.67 1.92 1.92 0 0 0-2.65-.26"/></g><path class="cls-5" d="M528.14 444.37c-.18.09-.89-1.53-2.75-2.39s-3.54-.46-3.58-.65.37-.32 1.09-.43a5.08 5.08 0 0 1 4.89 2.35c.37.64.42 1.1.35 1.12Zm-2.14 4.18c-.14.14-1.15-.86-2.76-1.31s-3-.17-3-.36 1.39-.83 3.22-.29 2.66 1.88 2.54 1.96Zm6.2-9.55c-.14.15-1.68-1.4-4.12-2.31s-4.61-.82-4.62-1 2.25-.62 4.86.39 4.03 2.84 3.88 2.92Zm.49-9.45c-.08.19-1.8-.51-4-.57s-4 .49-4.06.3 1.69-1.07 4.09-1 4.06 1.13 3.97 1.27Zm-.06-9.11c-.1.18-1.83-.84-4.19-.71s-4 1.24-4.1 1.07.28-.46 1-.88a7 7 0 0 1 6.23-.27c.73.35 1.1.72 1.06.79Zm-4.15-2.44a2.66 2.66 0 0 1-.05-1.17 8.18 8.18 0 0 1 .9-3.08 3.61 3.61 0 0 1 1.54-1.74 1.27 1.27 0 0 1 1.44.27 2.09 2.09 0 0 1 .51 1.4 4.49 4.49 0 0 1-3.9 4.19 5.23 5.23 0 0 1-5.15-2.68 1.78 1.78 0 0 1-.1-1.5A1.25 1.25 0 0 1 525 413a4.47 4.47 0 0 1 2 1 8.92 8.92 0 0 1 2.14 2.4 3 3 0 0 1 .49 1.06 14.92 14.92 0 0 0-2.92-3.07 4.18 4.18 0 0 0-1.81-.87.68.68 0 0 0-.72.37 1.27 1.27 0 0 0 .13 1 4.62 4.62 0 0 0 4.49 2.27 3.9 3.9 0 0 0 3.36-3.51 1.56 1.56 0 0 0-.31-1 .7.7 0 0 0-.8-.16 3.21 3.21 0 0 0-1.32 1.45 12.12 12.12 0 0 0-1.25 4.06Z"/><path class="cls-5" d="M539.67 233.59s-31.91 60.33-32.35 70.82 0 107.55 0 107.55h49.4c1.31 0 8.69-43.72 7.19-53.77S557.08 294 557.08 294h28.42s7.79-8.33 7.51-18.91c-.16-5.83-4-17.77-7.77-24.09-2.43-4.06-18-25.31-18-25.31Z"/><path class="cls-9" d="M537.53 237.66a1.11 1.11 0 0 1-.14.35l-.46 1-1.86 3.76c-.83 1.64-1.83 3.63-3 5.93l-1.86 3.7q-.93 2-2 4.21l-9.63 20.74-5.71 12.23c-1 2.12-2 4.28-3 6.47a35.2 35.2 0 0 0-2.2 6.93 38.79 38.79 0 0 0-.75 7.25c-.09 2.42-.13 4.8-.17 7.14-.07 4.68-.09 9.19-.08 13.5 0 8.6.1 16.35.19 22.86s.18 11.72.23 15.41v5.28a2.79 2.79 0 0 1 0 .38s0-.13-.05-.37 0-.64-.06-1.09c-.05-1-.1-2.41-.18-4.19-.13-3.64-.29-8.9-.45-15.41s-.28-14.26-.33-22.87v-13.51c0-2.35.08-4.73.16-7.15a38.58 38.58 0 0 1 .77-7.36 35.71 35.71 0 0 1 2.23-7.07q1.55-3.28 3-6.48l5.74-12.22 9.77-20.68c.69-1.47 1.36-2.87 2-4.19l1.9-3.68c1.2-2.28 2.23-4.25 3.08-5.88l2-3.7c.21-.39.39-.7.52-1s.33-.29.34-.29Z"/><path class="cls-9" d="M527.2 258.22c-.18 0-1.25-3.35-2.57-7.54s-2.37-7.59-2.19-7.65 1.52 3.25 2.83 7.45 2.11 7.69 1.93 7.74Zm36.8 98.11a3 3 0 0 1-.14-.68c-.07-.53-.16-1.18-.28-2-.22-1.82-.53-4.28-.9-7.28-.7-6.25-1.66-14.71-2.72-24.06s-1.92-17.92-2.44-24.09c-.25-3-.46-5.49-.61-7.31-.06-.81-.1-1.47-.13-2a2.92 2.92 0 0 1 0-.7 2.55 2.55 0 0 1 .14.69c.07.53.15 1.18.26 2 .2 1.82.48 4.29.82 7.29.69 6.25 1.61 14.71 2.64 24.07s1.87 17.82 2.52 24.07c.29 3 .52 5.49.69 7.31.06.8.12 1.46.16 2a2.49 2.49 0 0 1-.01.69Z"/><path class="cls-5" d="M551.46 72c-.76-5.09 3.66-10.11 8.77-10.72s10.23 2.64 12.59 7.22 2.19 10.18.38 15c-1.23 3.26-3.67 6.57-7.14 6.82s-6.12-2.39-8.42-4.82"/><path class="cls-5" d="M515.19 97.52c-10.27-22.59 14.16-33.93 27.48-30.17 12.53 3.54 17.87 9.77 19.93 18.15s2 17.46-1.32 25.44c-1.62 3.94-4.54 7.93-8.76 8.43"/><path class="cls-10" d="M550.66 79.91a4.26 4.26 0 0 1 3.81 4.32l-2.41 57.49c-.09 6.78-10 10.62-17.28 10.47-7.34-.16-7.58-3.76-7.69-10.21-.18-10.8-.17-14.85-.18-14.78s-9.27-1.54-11.19-13.65c-1-6-.66-15.88-.15-24 .46-7.26 5.27-16.17 12.5-15.4Z"/><path class="cls-5" d="M520.26 96.48a1.56 1.56 0 0 0 1.5 1.57 1.49 1.49 0 0 0 1.6-1.4 1.56 1.56 0 0 0-1.49-1.57 1.49 1.49 0 0 0-1.61 1.4Zm-2.55-1.74c.19.2 1.37-.67 3-.67s2.89.84 3.08.64-.11-.46-.65-.85a4.32 4.32 0 0 0-2.46-.76 4.16 4.16 0 0 0-2.42.78c-.47.4-.64.76-.55.86Zm18.88 1.74a1.56 1.56 0 0 0 1.5 1.57 1.49 1.49 0 0 0 1.6-1.4 1.56 1.56 0 0 0-1.5-1.57 1.48 1.48 0 0 0-1.6 1.4Z"/><path class="cls-5" d="M534.13 95.05c.19.2 1.37-.67 3-.67s2.89.84 3.07.64-.1-.46-.64-.85a4.25 4.25 0 0 0-2.46-.75 4 4 0 0 0-2.42.78c-.47.39-.68.8-.55.85Zm-6.06 12.38a11.77 11.77 0 0 0-2.72-.49c-.42 0-.83-.13-.9-.42a2.17 2.17 0 0 1 .29-1.26L526 102c1.75-4.62 3-8.42 2.83-8.49s-1.76 3.62-3.51 8.24c-.42 1.14-.82 2.23-1.21 3.27a2.46 2.46 0 0 0-.22 1.67 1.11 1.11 0 0 0 .7.63 3 3 0 0 0 .73.1 10.54 10.54 0 0 0 2.75.01Z"/><path class="cls-12" d="M526.91 127.2a30.83 30.83 0 0 0 16.21-4.33s-3.93 8.32-16 7.18Zm1.86-15.74a3 3 0 0 1 2.7-1.12 2.75 2.75 0 0 1 1.9 1 1.74 1.74 0 0 1 .13 2 2 2 0 0 1-2.19.55 6.19 6.19 0 0 1-2.13-1.27 1.9 1.9 0 0 1-.48-.5.56.56 0 0 1 0-.62"/><path class="cls-5" d="M533 108.59c-.27 0-.27 1.79-1.83 3.08s-3.48 1.09-3.49 1.34.43.35 1.25.38a4.53 4.53 0 0 0 2.91-1 3.91 3.91 0 0 0 1.42-2.59c.05-.8-.15-1.22-.26-1.21Zm.38-16.47c.16.46 1.83.24 3.79.48s3.54.77 3.8.36c.12-.19-.16-.62-.8-1.06a6.61 6.61 0 0 0-5.78-.64c-.72.29-1.08.65-1.01.86Zm-15.05-2.22c.29.38 1.44 0 2.82 0s2.56.25 2.83-.14c.12-.2-.07-.58-.58-.93a4 4 0 0 0-2.3-.63 3.88 3.88 0 0 0-2.25.77c-.49.36-.65.75-.52.93Z"/><path class="cls-5" d="M534.08 70.17c-4.41.14-7.76 1.49-11.63 3.6a16.84 16.84 0 0 0-8.3 9.87 3.42 3.42 0 0 0 .1 2.72 2.67 2.67 0 0 0 3.32.72 7.83 7.83 0 0 0 2.7-2.49 5.18 5.18 0 0 0 10.05-.11 4.53 4.53 0 0 0 4.68 4.16 6 6 0 0 0 5.15-4.07 15 15 0 0 0 2.13 5.91c1.24 1.71 3.47 2.89 5.48 2.23a10.65 10.65 0 0 0 .08 5.41c.64 1.71 3.21 30.82 4.93 30.23s1.66-30.29 2-32a40.14 40.14 0 0 0 1.3-10.15 16.44 16.44 0 0 0-3.07-9.6 16.41 16.41 0 0 0-8.87-5.47 39.6 39.6 0 0 0-10.54-1"/><path class="cls-5" d="M558.33 123.18s-.12.08-.37.17a5.68 5.68 0 0 1-1.13.27 9.58 9.58 0 0 1-9.23-4.34 12.49 12.49 0 0 1-1.59-7.57c.2-2.77.84-5.29 1.14-7.61a61.27 61.27 0 0 0 .54-6.21v-4.22a8.16 8.16 0 0 1 0-1.55 6.22 6.22 0 0 1 .25 1.54c.1 1 .2 2.44.2 4.23a50 50 0 0 1-.4 6.29c-.27 2.36-.89 4.89-1.08 7.57a12.12 12.12 0 0 0 1.45 7.21 8.94 8.94 0 0 0 4.61 3.78 9.77 9.77 0 0 0 4.06.62c1-.08 1.53-.24 1.55-.18Z"/><path class="cls-9" d="M529.82 68.61a5.51 5.51 0 0 1 .62 2.87 9.24 9.24 0 0 1-9.06 9.41 5.33 5.33 0 0 1-2.89-.52c0-.12 1.11.2 2.86 0a9.28 9.28 0 0 0 8.62-9c.09-1.66-.27-2.73-.15-2.76Zm1.8 14.25c.06 0-.09.83-1 1.73a6.27 6.27 0 0 1-4.62 1.56 10 10 0 0 1-4.55-1.57c-1-.65-1.6-1.16-1.55-1.23a8 8 0 0 1 1.78.82 12 12 0 0 0 4.36 1.31 6.44 6.44 0 0 0 4.22-1.25c.95-.72 1.25-1.43 1.36-1.37Zm29.15-3.7a11.39 11.39 0 0 1-.22 3.31 16.62 16.62 0 0 1-3 7.46 10.06 10.06 0 0 1-6.93 3.95 6.71 6.71 0 0 1-2.45-.24c-.56-.18-.84-.34-.82-.38a12.33 12.33 0 0 0 3.22.14 10.12 10.12 0 0 0 6.45-3.88 18.19 18.19 0 0 0 3-7.14 31.06 31.06 0 0 1 .75-3.22Z"/><path class="cls-9" d="M563 85a3.08 3.08 0 0 1 .19 1 18.2 18.2 0 0 1 .07 2.82 14.19 14.19 0 0 1-3.26 8.73 9.79 9.79 0 0 1-4.3 2.93 8.45 8.45 0 0 1-4.23.26 7 7 0 0 1-2.63-1.11c-.55-.4-.78-.7-.76-.73a9.9 9.9 0 0 0 3.47 1.37 8.35 8.35 0 0 0 4-.38 9.46 9.46 0 0 0 4-2.78 14.66 14.66 0 0 0 3.26-8.27c.19-2.33.07-3.84.19-3.84ZM393.17 240.76l-23.4 53.48h32.21l22.93-53.9-31.74.42z"/><path class="cls-1" d="m376.15 183.9 26.39 51.87h83.18l-3.37-6.77-24.1-.71-19.64-43.74a7.57 7.57 0 0 0-6.9-4.46H378.5a2.63 2.63 0 0 0-2.35 3.81Z"/><path class="cls-5" d="M417.81 207.13a3.19 3.19 0 1 1-3.18-3.19 3.19 3.19 0 0 1 3.18 3.19Z"/><path class="cls-9" d="M392.9 235.85h101.68v4.96H392.9z"/><path class="cls-9" d="m463.26 238.33 30.93 55.96h14.8l3.21-6.4 2.97-6.74-20.59-40.34-31.32-2.48z"/><path class="cls-7" d="M517 142.41s-18 6.32-21.83 26.41l19 9.47Z"/><path class="cls-7" d="M517 142.41s-12.57 28.16-12.09 43.53c.17 5.36 3.68 19.29 3.68 19.29l6.53 34.62s50-6.77 51.11-6.77-1.67-28.41-1.67-28.41l8.15-54.59s-3.74-7.43-20.59-10C542 138.52 517 142.41 517 142.41Z"/><path class="cls-5" d="M512.32 158.75c.12.07-1.2 2.16-2.78 5.79a51.88 51.88 0 0 0-2.32 6.55 56.62 56.62 0 0 0-1.64 8.33 57.8 57.8 0 0 0-.27 8.5 52.5 52.5 0 0 0 .81 6.9c.72 3.89 1.54 6.22 1.42 6.26a7.88 7.88 0 0 1-.64-1.61 18.48 18.48 0 0 1-.6-1.94c-.2-.77-.47-1.64-.65-2.62a46.71 46.71 0 0 1-.95-7 52.5 52.5 0 0 1 .21-8.6 53.4 53.4 0 0 1 1.71-8.43 46.09 46.09 0 0 1 2.49-6.57c.39-.92.84-1.71 1.21-2.41a20 20 0 0 1 1-1.76 9.58 9.58 0 0 1 1-1.39Z"/><path class="cls-7" d="m523.09 142.14.73-7.71a3.28 3.28 0 0 1 3.21-3l24.67-.36a3 3 0 0 1 3 2.72l.64 8.33a21.35 21.35 0 0 1-9.91 10.05c-7.25 3.52-18.53 3.64-18.53 3.64Z"/><path class="cls-5" d="M529.55 131.51c.08.07-.29.5-.44 1.34a14.18 14.18 0 0 0 0 3.43c.19 2.75.19 5 0 5s-.49-2.21-.67-5a9.4 9.4 0 0 1 .16-3.59c.4-.89.9-1.24.95-1.18Zm5.9 9.56c-.18 0-.46-2.16-.61-4.84a21.52 21.52 0 0 1 0-3.48c.13-.93.51-1.41.58-1.36s-.11.55-.1 1.39.16 2.06.22 3.41c.12 2.68.1 4.87-.09 4.88Zm7.42-.2c-.19 0-.62-2.09-1-4.72s-.48-4.77-.29-4.8.61 2.09 1 4.72.47 4.77.29 4.8Zm6.39.54c-.18 0-.71-2.28-.93-5.19s-.05-5.27.13-5.27.32 2.34.54 5.22.45 5.21.26 5.24Z"/><path d="M554.15 170.87c-1 8.68-.33 23.61 2.73 31.8l14.41-23.8Z" class="cls-13"/><path class="cls-7" d="m571.38 148.33.07.07a36.77 36.77 0 0 1 8.72 15.19l2.65 12.1-28.35 4.39a35.46 35.46 0 0 1-1.08-15.86c1.36-9.11 17.99-15.89 17.99-15.89Z"/><path class="cls-5" d="M582.82 175.69a2.08 2.08 0 0 1-.56.14l-1.63.3-6.07 1-20.56 3.12-.37.05v-.37c-.07-1.71-.11-3.49-.15-5.31-.07-4.77-.06-9.31.28-13.44a21.89 21.89 0 0 1 3.3-10.46 15.51 15.51 0 0 1 5.28-5.19 10.36 10.36 0 0 1 1.83-.85 3.07 3.07 0 0 1 .68-.2c0 .07-.91.36-2.38 1.28a16 16 0 0 0-5 5.21 21.88 21.88 0 0 0-3.09 10.26c-.29 4.09-.29 8.62-.22 13.37.05 1.82.1 3.6.14 5.3l-.38-.31 20.57-2.9 6.1-.8 1.64-.18a2.32 2.32 0 0 1 .59-.02Z"/><path class="cls-6" d="M523 157.92c-.12.14-1.89-1.23-4-3s-3.62-3.42-3.5-3.56 1.89 1.23 4 3.06 3.57 3.36 3.5 3.5Zm-3.88 14.92c.1.15-1.45 1.3-3.47 2.55s-3.73 2.13-3.83 2 1.46-1.3 3.48-2.55 3.7-2.16 3.82-2Zm15.81 3.66c-.19 0-.19-2.48 0-5.51s.48-5.48.67-5.47.19 2.48 0 5.51-.49 5.48-.67 5.47Zm15.37 14.91c-.15.12-1.62-1.74-3.58-3.88s-3.67-3.77-3.55-3.92 2.05 1.29 4 3.47 3.28 4.24 3.13 4.33Zm2.17-31.16c.1.15-1.58 1.46-3.76 2.93s-4 2.52-4.13 2.37 1.58-1.47 3.76-2.93 4.03-2.52 4.13-2.37ZM538.58 149c.1.16-1.73 1.51-4.1 3s-4.36 2.62-4.46 2.47 1.74-1.52 4.1-3 4.36-2.65 4.46-2.47Zm12.52 4.46c-.17.06-1-1.75-2-4.06s-1.5-4.23-1.33-4.3 1 1.75 1.95 4.06 1.56 4.23 1.38 4.3Zm17.23 5.64c-.13.14-1.42-.94-2.88-2.39s-2.53-2.74-2.4-2.87 1.41.94 2.87 2.4 2.54 2.76 2.41 2.86Zm-7.07 12.57c-.18 0-.43-1.75-.55-3.94s-.07-4 .11-4 .44 1.75.56 3.94.07 3.99-.12 4Zm14.28-2.6c0 .18-2 .23-4.5-.15s-4.39-1-4.35-1.21 2 .18 4.45.54 4.41.63 4.4.82ZM517.82 195c-.17.08-1.33-2-2.59-4.7s-2.15-4.91-2-5 1.32 2 2.59 4.7 2.18 5 2 5Zm18.86 20.36c-.15.11-1.55-1.57-3.13-3.75s-2.75-4-2.6-4.15 1.56 1.57 3.14 3.75 2.74 4.04 2.59 4.15Zm15.71-8.53c.07.18-1.85 1.08-4.28 2s-4.45 1.56-4.52 1.39 1.85-1.08 4.28-2 4.45-1.56 4.52-1.39Zm-38.54 16.48c-.17-.08.38-1.67 1.23-3.55s1.68-3.34 1.85-3.26-.38 1.66-1.23 3.54-1.7 3.34-1.85 3.27Zm-12.12-58.23c-.16.07-.94-1.35-1.25-3.29s0-3.54.15-3.52.21 1.56.51 3.41.77 3.32.59 3.4Zm21.52 45.19c-.09.16-1.8-.62-3.82-1.74s-3.59-2.17-3.5-2.33 1.8.62 3.83 1.74 3.58 2.16 3.49 2.33Zm12.45-21.48c.12.14-1.41 1.73-3.43 3.56s-3.74 3.19-3.87 3.06 1.41-1.73 3.42-3.56 3.75-3.19 3.88-3.06Z"/><path d="M528.07 188.4c.81 4.42 2.51 8.84 5.74 12s8.2 4.73 12.4 3.09a3 3 0 0 0 2-1.85 2.44 2.44 0 0 0-1.62-2.55 9.74 9.74 0 0 0-3.24-.45 18.36 18.36 0 0 1-15-9.72" class="cls-13"/><path class="cls-5" d="M544.83 198.78c0 .05-.3.1-.87.15a11 11 0 0 1-2.39-.05 15.07 15.07 0 0 1-3.47-.82 16.68 16.68 0 0 1-7.11-4.94 15.72 15.72 0 0 1-2-3 11.38 11.38 0 0 1-.88-2.23c-.15-.54-.21-.85-.16-.86s.47 1.15 1.46 2.86a17.21 17.21 0 0 0 2 2.79 20.71 20.71 0 0 0 3.15 2.79 20.43 20.43 0 0 0 3.72 2 17.54 17.54 0 0 0 3.32.92c1.98.35 3.22.27 3.23.39Z"/><path class="cls-10" d="m473.9 219.55 18.66-2.25 13.15 8.63L556 213.87l1.19-34.42 22.33-2.95v41.68a19.12 19.12 0 0 1-19.64 18.71l-73.66-2-3.12-6.27-15.81-.47Z"/><path class="cls-12" d="M555.36 213.87a5.78 5.78 0 0 1-.94.29l-2.74.71-10.09 2.52-33.35 8.08-3.1.74h-.12l-.11-.07-13.14-8.64h.18l-18.67 2.16.12-.07-4.93 6.26c-.55.69-1 1.23-1.33 1.64a4.31 4.31 0 0 1-.48.55 3.16 3.16 0 0 1 .4-.61c.32-.42.73-1 1.26-1.7 1.14-1.53 2.76-3.67 4.79-6.37l.05-.06h.08l18.65-2.3h.1l.08.06 13.16 8.6H505l3.11-.74 33.38-7.92 10.14-2.33 2.76-.61a6.29 6.29 0 0 1 .97-.19Z"/><path class="cls-12" d="M484.09 224.89a44.77 44.77 0 0 1-7.25.3h-1.32l.18-.07a32.91 32.91 0 0 1-4.7 3.62 35.22 35.22 0 0 1 4.33-4.06l.08-.06h1.43a45.53 45.53 0 0 1 7.25.27Zm80.53-5.4c-.15.1-1.12-2.26-3.66-3.82s-5.05-1.47-5-1.65a3.19 3.19 0 0 1 1.62-.13A8.62 8.62 0 0 1 564 218c.55.85.69 1.47.62 1.49Z"/><path class="cls-5" d="M158.27 494.74h84.14v11.56h-84.14z"/><path class="cls-5" d="M242.55 506.44h-84.42v-11.85h84.42Zm-84.13-.29h83.85v-11.27h-83.85Z"/><path class="cls-5" d="m166.07 502.45 12.12 59.75H223l11.7-55.9-68.63-3.85z"/><path class="cls-9" d="m166.07 556.54 6.46 8.88H227l7.7-8.88h-68.63z"/><path class="cls-5" d="M197.18 504.19c-.16 0-.37-27.67-.47-61.81s0-61.82.12-61.82.38 27.67.48 61.82.04 61.81-.13 61.81Zm18.74-69.26a2.92 2.92 0 0 1-.22.64c-.2.47-.45 1.06-.75 1.79l-.55 1.29c-.17.49-.36 1-.56 1.57s-.42 1.17-.65 1.81-.4 1.33-.62 2.05a84.86 84.86 0 0 0-2.36 10.3 125.92 125.92 0 0 0-1.3 12.88 172.77 172.77 0 0 0 .67 23.54c.27 3 .54 5.43.74 7.1.09.79.16 1.43.21 1.94a3.46 3.46 0 0 1 0 .68 2.79 2.79 0 0 1-.16-.67c-.08-.5-.19-1.14-.32-1.92-.27-1.66-.61-4.09-.93-7.09a154.18 154.18 0 0 1-.85-23.6 118.24 118.24 0 0 1 1.36-12.95 79.45 79.45 0 0 1 2.53-10.29c.24-.72.43-1.42.67-2.06s.48-1.23.7-1.8.42-1.07.6-1.56.42-.89.6-1.27c.35-.71.64-1.29.86-1.75a3.34 3.34 0 0 1 .33-.63Z"/><path class="cls-5" d="M213.77 412.54a5.36 5.36 0 0 1-.26.91l-.88 2.58c-.2.56-.41 1.18-.64 1.85l-.68 2.24c-.49 1.6-1.06 3.42-1.57 5.47-.27 1-.55 2.08-.84 3.2s-.52 2.29-.79 3.5c-.59 2.41-1 5-1.56 7.76-.92 5.49-1.74 11.57-2.3 18s-.77 12.55-.85 18.12.06 10.61.28 14.82c.08 2.11.21 4 .32 5.69s.2 3.11.31 4.28.16 2 .21 2.72a5.69 5.69 0 0 1 0 .95 6 6 0 0 1-.15-.94c-.08-.67-.19-1.57-.32-2.7s-.28-2.62-.41-4.29-.31-3.58-.41-5.69c-.28-4.22-.4-9.25-.41-14.84s.27-11.74.8-18.17 1.4-12.52 2.36-18c.56-2.74 1-5.36 1.61-7.77.29-1.21.56-2.38.83-3.51s.6-2.17.88-3.2c.54-2 1.14-3.86 1.66-5.45.26-.8.5-1.54.73-2.23l.69-1.84 1-2.54a5.21 5.21 0 0 1 .39-.92Zm-21.91 96.55a1.19 1.19 0 0 1-.05-.32c0-.25 0-.57-.08-1q-.09-1.32-.24-3.66c-.21-3.23-.49-7.83-.85-13.48-.73-11.39-1.78-27.11-3.7-44.4-1-8.65-2.11-16.86-3.29-24.3-.63-3.72-1.2-7.25-1.84-10.54s-1.23-6.36-1.82-9.15-1.17-5.3-1.67-7.51-.95-4.1-1.35-5.65l-.87-3.57c-.09-.38-.16-.68-.21-.93a1.31 1.31 0 0 1-.06-.32 1.19 1.19 0 0 1 .11.31l.27.91 1 3.54c.43 1.54.93 3.43 1.45 5.63s1.17 4.71 1.75 7.5 1.28 5.84 1.89 9.14 1.26 6.83 1.9 10.55c1.21 7.45 2.37 15.67 3.35 24.32 1.91 17.31 2.9 33.05 3.53 44.44.31 5.7.52 10.31.65 13.5.06 1.56.1 2.78.13 3.67v.95a1 1 0 0 1 0 .37Z"/><path class="cls-7" d="M196.5 393.86c-.37-3.92-4.33-6.88-8.27-6.92s-7.61 2.32-10 5.44-3.73 6.92-4.82 10.71c-2.65 9.23-4.1 18.94-3 28.48s5 18.94 11.86 25.69c1.11 1.09 2.55 2.19 4.08 1.86a4.81 4.81 0 0 0 2.16-1.33 63.76 63.76 0 0 0 20.69-48.48c-.11-3.63-.59-7.4-2.6-10.43s-6.69-6.23-10.11-5m-29.4-31.43-5.55 10.05c-.13.23-.3.5-.56.52s-.51-.25-.67-.5L145.64 350l3.36-1.9Z"/><path d="m167.09 362.45-5.55 10.05c-.13.23-.3.5-.56.52s-.51-.25-.67-.5L145.64 350l3.36-1.9Z" class="cls-8"/><path class="cls-7" d="m196.83 380.56-50-29.52a2.31 2.31 0 0 1-1.21-1.23c-.2-.74.35-1.45.89-2a34.46 34.46 0 0 1 26.73-10.51 30.53 30.53 0 0 1 24.16 15c4.83 8.63 5 20-.55 28.23"/><path class="cls-5" d="M154 341.62a3 3 0 0 1 .66-.09c.43 0 1.07-.09 1.89-.09a37.25 37.25 0 0 1 6.94.56 41.09 41.09 0 0 1 20.51 9.88 41.25 41.25 0 0 1 11.89 19.41 38.31 38.31 0 0 1 1.24 6.85c.09.82.07 1.46.09 1.89a3 3 0 0 1 0 .66 24.85 24.85 0 0 1-.32-2.52 42.66 42.66 0 0 0-1.41-6.76 40.89 40.89 0 0 0-32-29 42.46 42.46 0 0 0-6.86-.73c-1.7-.04-2.63-.01-2.63-.06Z"/><path class="cls-5" d="M190.06 360.18a11.75 11.75 0 0 1-2.52 1.15c-1.6.63-3.83 1.43-6.32 2.22s-4.77 1.43-6.43 1.83a11.78 11.78 0 0 1-2.73.52 13.61 13.61 0 0 1 2.61-.93l6.37-2 6.35-2.05a14 14 0 0 1 2.67-.74ZM182.19 339a35 35 0 0 1 .28 11.19c-.17 0-.21-2.51-.29-5.59s-.18-5.6.01-5.6Zm-35.81 11.48a21.59 21.59 0 0 1 3.62-1.28c2.27-.7 5.44-1.59 9-2.44s6.75-1.5 9.09-1.91a22.68 22.68 0 0 1 3.82-.52 25.94 25.94 0 0 1-3.74.94c-2.31.51-5.51 1.23-9 2.07s-6.7 1.67-9 2.27a28.31 28.31 0 0 1-3.79.87Z"/><path class="cls-7" d="M173.77 384.58c-4.3-3.26-8.85-3.9-14.25-3.69a43.62 43.62 0 0 0-15.59 4c-8.43 3.7-16.36 9.14-21.4 16.85s-6.79 17.91-3 26.31a3.68 3.68 0 0 0 1.71 2.07 4.07 4.07 0 0 0 2.82-.21c9.59-3.13 19.25-6.29 28.08-11.19S169 407 173.7 398.11a17.73 17.73 0 0 0 2.27-6.84 8.5 8.5 0 0 0-2.2-6.69"/><path class="cls-5" d="M173.86 383.57a3.65 3.65 0 0 1-.69.28l-2 .69-1.45.49c-.53.19-1.09.42-1.7.66-1.21.49-2.62 1-4.11 1.7l-2.35 1.07c-.82.38-1.63.84-2.49 1.28-1.74.86-3.5 1.95-5.37 3.05a85.32 85.32 0 0 0-21.17 18.62c-1.33 1.72-2.64 3.33-3.71 4.94-.54.8-1.11 1.55-1.59 2.31s-.92 1.5-1.36 2.2c-.9 1.38-1.57 2.71-2.21 3.85-.31.58-.62 1.11-.87 1.61l-.67 1.38c-.38.78-.7 1.41-.94 1.9a2.91 2.91 0 0 1-.37.65 3.1 3.1 0 0 1 .26-.69l.84-2 .62-1.41c.24-.51.54-1.05.83-1.63.62-1.16 1.26-2.52 2.15-3.92.43-.71.87-1.46 1.34-2.23s1-1.53 1.56-2.34c1.06-1.64 2.36-3.27 3.69-5a82.52 82.52 0 0 1 21.31-18.74c1.89-1.1 3.67-2.18 5.43-3 .87-.43 1.7-.89 2.52-1.26l2.38-1c1.51-.7 2.93-1.16 4.16-1.63.62-.22 1.19-.44 1.73-.61l1.47-.44 2-.59a3.75 3.75 0 0 1 .76-.19Zm-33.62 18.2c0 .16-4.63 1.67-10.46 3.37s-10.59 3-10.63 2.8 4.63-1.67 10.46-3.38 10.59-2.95 10.63-2.79Z"/><path class="cls-5" d="M139.81 424.86a17.32 17.32 0 0 1-.23-3.26c-.05-2-.06-4.8 0-7.88s.25-5.86.41-7.87a16.63 16.63 0 0 1 .42-3.24 19.25 19.25 0 0 1 0 3.27c-.07 2.21-.15 4.89-.24 7.86s-.15 5.65-.2 7.86a18.36 18.36 0 0 1-.16 3.26Zm19.79-10.08c-.17 0-.69-5.65-1.18-12.64s-.74-12.68-.57-12.69.69 5.65 1.17 12.65.74 12.67.58 12.68Z"/><path class="cls-5" d="M135 388.9a18.49 18.49 0 0 1 3.36-.1c2.07 0 4.92.07 8.07.18s6 .23 8.07.35a18.79 18.79 0 0 1 3.34.32 17.59 17.59 0 0 1-3.35.11c-2.06 0-4.92-.08-8.08-.18s-6-.24-8.07-.36a18.79 18.79 0 0 1-3.34-.32Zm49.42 71.1a3.28 3.28 0 0 1-.07-.68c0-.52 0-1.17-.09-2-.07-1.7-.09-4.18 0-7.23s.26-6.69.62-10.72 1-8.43 1.76-13 1.83-8.93 2.85-12.84 2.12-7.38 3.12-10.27 1.86-5.2 2.52-6.78c.31-.74.57-1.34.77-1.81a3.11 3.11 0 0 1 .3-.62 3 3 0 0 1-.19.66c-.17.49-.39 1.1-.66 1.86-.59 1.6-1.4 3.93-2.34 6.83s-2 6.38-3 10.27-2 8.23-2.79 12.81-1.38 9-1.8 13-.63 7.64-.74 10.68-.17 5.51-.16 7.22v2a2.83 2.83 0 0 1-.1.62Z"/><path class="cls-5" d="M187.06 425.82a13.42 13.42 0 0 1-2 2.19c-1.3 1.29-3.14 3-5.23 4.86s-4.06 3.44-5.51 4.55a13 13 0 0 1-2.43 1.69 16.77 16.77 0 0 1 2.16-2l5.38-4.67 5.34-4.72a15.07 15.07 0 0 1 2.29-1.9Zm15.83 12.76a25.42 25.42 0 0 1-2.12-2.95c-1.37-2-3.07-4.47-4.94-7.21l-5.05-7.14a23.24 23.24 0 0 1-2-3 20.93 20.93 0 0 1 2.36 2.76c1.39 1.76 3.24 4.25 5.2 7.06s3.63 5.41 4.8 7.32a19.06 19.06 0 0 1 1.75 3.16Zm-8.29-40.11c.09.13-5.17 3.68-11.75 7.9s-12 7.55-12.07 7.41 5.17-3.68 11.75-7.91 11.98-7.54 12.07-7.4Zm14.83 16c-.12.12-3.68-3.17-8-7.35s-7.65-7.66-7.53-7.78a99.21 99.21 0 0 1 7.95 7.35c4.32 4.18 7.7 7.66 7.58 7.78Z"/><path class="cls-7" d="m213.16 414.15 4.51-.37a22.5 22.5 0 0 0 9.12-2.79 36.73 36.73 0 0 1 4.25-2.14c5.58-2.24 11.81-1.84 17.82-2.14a73.64 73.64 0 0 0 28.34-7.25 2.7 2.7 0 0 0 1.24-1.12c.93-1.69-.8-3.19-2.28-4.11-7.61-4.68-15.35-9.43-24-11.76s-18.42-1.93-25.78 3.14c-8.64 5.94-11.79 18.15-13.25 28.54"/><path class="cls-5" d="M278.54 397.79a6.11 6.11 0 0 1-.76-.36l-2.14-1.12c-1.86-1-4.53-2.42-7.91-4a73.6 73.6 0 0 0-12.23-4.71 40.44 40.44 0 0 0-15.86-1.29 27.11 27.11 0 0 0-14.46 6.21 32.3 32.3 0 0 0-7.53 10.57c-1.58 3.39-2.56 6.27-3.27 8.24l-.8 2.27a5 5 0 0 1-.32.79 4.34 4.34 0 0 1 .2-.82l.7-2.32a74.12 74.12 0 0 1 3.11-8.33 31.78 31.78 0 0 1 7.55-10.81 27.34 27.34 0 0 1 14.74-6.39 40.12 40.12 0 0 1 16.08 1.28 71.68 71.68 0 0 1 12.28 4.86c3.36 1.68 6 3.18 7.83 4.22l2.08 1.21a4.06 4.06 0 0 1 .71.5Z"/><path class="cls-5" d="M267.7 403.61c-.09.14-6-3.68-13.19-8.53s-12.95-8.89-12.85-9 6 3.68 13.19 8.53 12.94 8.86 12.85 9Zm-5.7-18.12a14.19 14.19 0 0 1-4.61.92 14 14 0 0 1-4.7-.07 26.88 26.88 0 0 1 4.64-.52c2.59-.24 4.67-.5 4.67-.33Zm-26.45-4.75a31.47 31.47 0 0 1-4.39 7.45 15.65 15.65 0 0 1 1.94-3.88 16.19 16.19 0 0 1 2.45-3.57Zm5.29 26.35a14.89 14.89 0 0 1-2.84-1.54c-1.71-1-4-2.55-6.48-4.34s-4.63-3.48-6.19-4.72a17.19 17.19 0 0 1-2.45-2.1 16.6 16.6 0 0 1 2.7 1.76l6.3 4.57c2.45 1.79 4.71 3.35 6.35 4.47a19.88 19.88 0 0 1 2.61 1.9Z"/><path class="cls-7" d="M219.81 433.33c-4.31-1.13-9.44 3.05-10.33 7.42s.75 8.83 2.67 12.85c4.24 8.9 10.09 17.16 17.8 23.3s17.37 10.07 27.23 10c-1.82-8.45.49-17.29-.53-25.88a33.68 33.68 0 0 0-29.82-29.52c-2.74-.29-5.93-.73-7 1.81"/><path class="cls-5" d="M257.18 486.92a2.77 2.77 0 0 1-.61-.28 10.62 10.62 0 0 1-1.61-1.08 16.89 16.89 0 0 1-4.25-5.69c-.69-1.33-1.46-2.78-2.21-4.38s-1.5-3.32-2.31-5.12a49.53 49.53 0 0 0-2.85-5.48 42.55 42.55 0 0 0-3.92-5.33c-2.95-3.46-6.11-6.46-8.85-9.32a60.25 60.25 0 0 1-6.75-8.1 29.58 29.58 0 0 1-3.3-6.3 18.28 18.28 0 0 1-.58-1.85 2.43 2.43 0 0 1-.13-.66c.05 0 .3.88.93 2.43a32.18 32.18 0 0 0 3.43 6.14 64.23 64.23 0 0 0 6.79 8c2.76 2.83 5.94 5.82 8.92 9.32a41.52 41.52 0 0 1 4 5.41 47.16 47.16 0 0 1 2.85 5.55c.8 1.81 1.55 3.52 2.27 5.14s1.47 3.06 2.13 4.4a17.34 17.34 0 0 0 4 5.7c1.24 1.04 2.09 1.45 2.05 1.5Z"/><path class="cls-5" d="M234.91 479.9a13.55 13.55 0 0 1 .4-2.9c.34-1.78.89-4.21 1.64-6.86s1.54-5 2.18-6.71a12.52 12.52 0 0 1 1.18-2.68 15.35 15.35 0 0 1-.78 2.82c-.53 1.72-1.26 4.09-2 6.73s-1.35 5.05-1.8 6.79a15.26 15.26 0 0 1-.82 2.81Zm21.46-20.76a17.71 17.71 0 0 1-3-.7c-1.85-.48-4.41-1.14-7.26-1.79s-5.46-1.14-7.34-1.5a16.74 16.74 0 0 1-3-.67 15 15 0 0 1 3.11.26c1.9.25 4.53.68 7.4 1.33s5.42 1.38 7.25 2a14.69 14.69 0 0 1 2.84 1.07Zm-37.44 6.03a18.55 18.55 0 0 1 .47-3.35c.38-2.06 1-4.89 1.79-8s1.66-5.85 2.33-7.83a17.66 17.66 0 0 1 1.24-3.16 20.56 20.56 0 0 1-.83 3.28c-.57 2-1.36 4.78-2.16 7.86s-1.47 5.88-2 7.9a19.33 19.33 0 0 1-.84 3.3Zm27.56-24.12c0 .17-5.4-.27-12-1s-12-1.4-11.94-1.57 5.39.27 12 1 11.96 1.41 11.94 1.57Z"/><path class="cls-9" d="M242.55 506.25c0 .16-18.9.3-42.21.3s-42.21-.14-42.21-.3 18.9-.3 42.21-.3 42.21.13 42.21.3Zm-13.15 24.32c0 .16-12.73.3-28.44.3s-28.43-.14-28.43-.3 12.73-.3 28.43-.3 28.44.13 28.44.3Zm.5 3.43c0 .17-12.74.3-28.44.3S173 534.21 173 534s12.73-.29 28.44-.29 28.46.17 28.46.29Zm0-6.3c0 .17-13.17.3-29.42.3s-29.41-.13-29.41-.3 13.17-.3 29.41-.3 29.42.14 29.42.3Z"/></svg>