<svg xmlns="http://www.w3.org/2000/svg" viewBox="0 0 1000 600"><defs><style>.cls-2{fill:#fff}.cls-24{fill:#9bc1f9}.cls-4{fill:#3c8f7c}.cls-5{fill:#96d9c9}.cls-6{fill:#50bfa5}.cls-7{fill:#0e2e35}.cls-8{fill:#f7cc7f}.cls-9{fill:#f47458}.cls-10{fill:#3cb4c5}.cls-11{fill:#f79c8d}.cls-12{fill:#f48c7f}.cls-13{fill:#f7a491}.cls-14{fill:#13375b}.cls-15{fill:#355389}.cls-16{fill:#fae0b2}.cls-23{mix-blend-mode:multiply;fill:#daeef7;opacity:.3}.cls-25{fill:#e8ba70}.cls-26{fill:#256653}.cls-28{fill:#dd513a}.cls-31{fill:#184655}</style></defs><g style="isolation:isolate"><g id="Capa_1" data-name="Capa 1"><path class="cls-2" d="M58.65 32h876.76v554.74H58.65z"/><path d="M347.41 67c124-7.2 254.06 30.29 235 84.63s102.19-19.3 150.6.29c34.47 13.95 20.69 56.42 37.36 73.53 38.23 39.23 77.33-10.17 126 19.47s-51 306.3-101.79 307.84l-579.76-3.52-41.6-3.74s-115.09-62.93-32.76-121c55.6-39.2 15.54-67.7 9.54-85.67-6.95-20.64-23.17-56.67 47.5-83.12s52.42-84 50.69-95.9S223.38 74.24 347.41 67Z" style="opacity:.1;fill:#9bc1f9"/><path class="cls-4" d="M206.49 426.88c-13.34-19.88-16.57-44.35-16.93-61.37a163.87 163.87 0 0 1 2.44-32.58l-.92-.29a164.45 164.45 0 0 0-2.48 32.79c.37 17.2 3.63 41.92 17.13 62.05Z"/><path class="cls-4" d="M195 329.44a14 14 0 0 1-4.33 10 16.48 16.48 0 0 1-3.53-11 14 14 0 0 1 4.33-10 16.47 16.47 0 0 1 3.53 11Zm-8.18 9.96a16.55 16.55 0 0 1 2.52 11.24 14.21 14.21 0 0 1-8.83-6.49 16.41 16.41 0 0 1-2.51-11.23 14.26 14.26 0 0 1 8.82 6.48Zm-4.43 11.53a15.65 15.65 0 0 1 6.77 9.07 12.15 12.15 0 0 1-10.24-1.49 15.72 15.72 0 0 1-6.78-9.08 12.17 12.17 0 0 1 10.25 1.5Z"/><ellipse class="cls-4" cx="182.7" cy="370.48" rx="4.12" ry="7.96" transform="rotate(-55.4 182.675 370.454)"/><path class="cls-4" d="M194.64 347.56a10.41 10.41 0 0 1 9.08-.87 11.71 11.71 0 0 1-5.42 7.82 10.41 10.41 0 0 1-9.08.87 11.8 11.8 0 0 1 5.42-7.82Zm.07 10.94a10.44 10.44 0 0 1 9.08-.88 11.78 11.78 0 0 1-5.43 7.83 10.47 10.47 0 0 1-9.08.87 11.76 11.76 0 0 1 5.43-7.82Z"/><path class="cls-5" d="M192.75 524.52c-28-10.18-47.51-34.46-59-53a198.34 198.34 0 0 1-18.43-38.33l-1.24.49a201 201 0 0 0 18.55 38.6c11.6 18.72 31.37 43.26 59.66 53.56Z"/><path class="cls-5" d="M116.42 426.62a20.2 20.2 0 0 1 1.62 15 17.5 17.5 0 0 1-11.11-9 20.25 20.25 0 0 1-1.62-15 17.5 17.5 0 0 1 11.11 9ZM113.68 445a17.85 17.85 0 0 1 10.15 10.22 17 17 0 0 1-14.16.68 17.82 17.82 0 0 1-10.15-10.22 17 17 0 0 1 14.16-.68Z"/><ellipse class="cls-5" cx="116.7" cy="467.45" rx="13.14" ry="5.77" transform="rotate(-8.11 116.772 467.611)"/><ellipse class="cls-5" cx="126.56" cy="483.49" rx="13.14" ry="5.77" transform="rotate(-8.11 126.624 483.621)"/><path class="cls-5" d="M125.26 452.76a19.73 19.73 0 0 1 5.51-12.76 17.14 17.14 0 0 1 4.08 12.58 19.7 19.7 0 0 1-5.5 12.75 17.16 17.16 0 0 1-4.09-12.57Zm10.3 16.6a19.74 19.74 0 0 1 5.31-12.85 17 17 0 0 1 4.27 12.49 19.79 19.79 0 0 1-5.31 12.85 17 17 0 0 1-4.27-12.49Zm7.3 24.96a6.9 6.9 0 0 1 6-.29 8 8 0 0 1-3.92 5 6.89 6.89 0 0 1-6 .28 7.9 7.9 0 0 1 3.92-4.99Z"/><path class="cls-4" d="M259.79 497.6s21.73-48 14.46-58.69c-10-14.8-22.52 30.6-23.13 26.61-5.75-37.68-4.55-85.22-31.44-92.42-15.29-4.09 1 35.5-.89 45.7s-27.33-26.22-43-45.49-25.25-8.64-16.17 14.74c8.78 22.61 40.59 49.09 33.47 51.36S146 410.19 140 421.79c-7.35 14.21 54.15 39.35 48 42.21s-35.47-10.48-35.47.85S193 479 191.94 483.89c-1.7 7.94-27.13-12.38-29.12-1.37-2 11.26 34.52 12.12 33.24 20.93-.73 5.06-9.94-.24-11.6 6.72-3.8 15.87 53.8 38.1 53.8 38.1Z"/><path class="cls-5" d="M299.07 508.17c8.75 4.09 6.39 14.26 6.39 14.26s23.71-18.51 32.57-7.7 4.21 32-6.19 35.43-100.82 1-100.82 1 60.19-46.68 68.05-42.99Z"/><path class="cls-6" d="m237.12 534.27.84-.72c-19-23.14-27.11-52.15-30.57-72.41a199.83 199.83 0 0 1-3-38.87l-1.15-.21a201 201 0 0 0 3 39.12c3.49 20.43 11.68 49.7 30.88 73.09Z"/><path class="cls-6" d="M206.94 418.59c.56 5-.73 9.31-3.23 12.08a22.37 22.37 0 0 1-6-12.9c-.56-5 .73-9.31 3.23-12.09a22.43 22.43 0 0 1 6 12.91Zm-7.41 11.64a21.91 21.91 0 0 1 4.92 13.26c-3.94-.68-8.11-3.23-11.37-7.35a22 22 0 0 1-4.92-13.27c3.94.68 8.11 3.23 11.37 7.36Zm-3.06 13.89a22 22 0 0 1 9.46 10.53c-3.43 1.36-7.81 1-12.13-1.37a21.94 21.94 0 0 1-9.45-10.53c3.43-1.36 7.81-1 12.12 1.37Zm7.71 22.88a9.17 9.17 0 0 1 4.25 4.14 5.88 5.88 0 0 1-5.08-.18 9.11 9.11 0 0 1-4.24-4.14 5.86 5.86 0 0 1 5.07.18Zm2.34 8.53a9.11 9.11 0 0 1 4.24 4.14 5.86 5.86 0 0 1-5.07-.18 9.11 9.11 0 0 1-4.24-4.14 5.86 5.86 0 0 1 5.07.18Zm3.48-35.91a11.42 11.42 0 0 1 10.35-1.4 12.17 12.17 0 0 1-4.87 9.53 11.38 11.38 0 0 1-10.35 1.4 12.21 12.21 0 0 1 4.87-9.53Zm2.07 13.01a11.41 11.41 0 0 1 10.35-1.4 12.22 12.22 0 0 1-4.88 9.53 11.41 11.41 0 0 1-10.35 1.4 12.22 12.22 0 0 1 4.88-9.53Zm1.33 18.79a7.42 7.42 0 0 1 6.74-.91 8 8 0 0 1-3.18 6.2 7.39 7.39 0 0 1-6.73.91 7.93 7.93 0 0 1 3.17-6.2Zm38.04 80.21s-27.77-35.63-39.38-41.12c-12.37-5.82-1.64 14.35-1.64 14.35s-26.45-26-32.67-19.49.43 12.56.43 12.56-22.15-4.12-25.38 4.18c-5 12.75 31.46 19.09 31.46 19.09s-17.45-3.83-14 4.06c5.31 11.91 81.18 6.37 81.18 6.37Z"/><path class="cls-5" d="M152.8 522.11c3.23-8.3 25.38-4.18 25.38-4.18s-6.64-6.07-.43-12.56 26.92 8.83 26.92 8.83-3.21-14.08 12.35-3c11.11 7.91 32.55 37.42 32.55 37.42Z"/><path class="cls-6" d="M231 551.1s44.26 3.13 52.87-4.8.13-22.3.13-22.3 15.19-12 15-19.84-10.13-3.86-10.13-3.86 16.77-21.59 12.79-25.7c-7.41-7.65-26.79 14.8-26.79 14.8s5.75-10.68-.32-12.37c-9.15-2.56-15.89 23.77-15.89 23.77s1.71-10.4-4.6-9c-11.41 2.48-23.06 59.3-23.06 59.3Z"/><path class="cls-7" d="M267.77 551.58h-3.7l13.8-71.72 3.08.59-13.18 71.13z"/><path class="cls-6" d="m681.88 429.09 3.57-8.66c2.77-6.37 9.87-9.41 15.85-6.8 15.06 6.6 21.61 25 14.62 41l-5.1 11.74a14.79 14.79 0 0 0 1.55 14.79 13.06 13.06 0 0 1 1.29 13L711 500.4a24.59 24.59 0 0 1-15.31 13.71 14.88 14.88 0 0 0-9.25 8.38l-3.81 8.76c-4.22 9.69-15 14.32-24.09 10.34l-5.18-2.28c-9.09-4-13-15.06-8.83-24.75 6.82-11.58 6.27-20.22 3.86-26.09a35.19 35.19 0 0 1 .33-27.37l.54-1.24a34.73 34.73 0 0 1 21.21-19.26c4.08-1.31 8.37-4.52 11.41-11.51Z"/><path class="cls-5" d="M617 550.78c7.32-9.51 47.93-60 74.07-68.5 28.85-9.38 1.66 27.85 1.66 27.85s51.18-56.16 70-51.1c17.22 4.64 0 39.45 0 39.45s19.4-19.27 42.91-19.27c22.89 0-15.89 70.08-18 73.74Z"/><path class="cls-4" d="M771.16 442.69c-20.91 32.77-36.15 70.8-44.88 109.47h-2.07a353.3 353.3 0 0 1 45.34-108.92c4.85-7.61 10.09-16.64 19.18-19.6.17-.06.24.21.07.27-8.3 3.09-13.1 11.67-17.64 18.78ZM731 552.23a425.33 425.33 0 0 1 85.82-87.32c.33-.25.79.34.45.6a420.69 420.69 0 0 0-84.13 86.74Z"/><path class="cls-4" d="M773.07 422.37c.54.79 2.6 2.87 3.2 5.59a11.63 11.63 0 0 1 .11 5.7 12.5 12.5 0 0 0 3.17-5.52c1-3.28.31-7.84-1-9.35-2.2-3.42-6.06-3.76-6.81-2.11s.26 3.88 1.33 5.69Zm5 29.25c-.78-.55-2.8-2.66-5.5-3.32a11.45 11.45 0 0 0-5.68-.22 12.43 12.43 0 0 1 5.56-3.08c3.29-1 7.82-.15 9.3 1.16 3.36 2.28 3.63 6.16 2 6.87s-3.9-.29-5.68-1.41Zm-7.55 12.82c-.78-.55-2.8-2.66-5.5-3.32a11.45 11.45 0 0 0-5.68-.22 12.43 12.43 0 0 1 5.56-3.08c3.29-1 7.82-.15 9.3 1.16 3.36 2.28 3.63 6.16 2 6.87s-3.9-.29-5.68-1.41Zm26.93 29.74c-.78-.56-2.8-2.67-5.5-3.33a11.52 11.52 0 0 0-5.68-.21 12.32 12.32 0 0 1 5.56-3.08c3.29-1 7.82-.16 9.3 1.16 3.36 2.28 3.63 6.15 2 6.87s-3.9-.29-5.68-1.41ZM811.21 482c-.78-.56-2.81-2.67-5.51-3.33a11.39 11.39 0 0 0-5.68-.21 12.47 12.47 0 0 1 5.57-3.08c3.29-1 7.82-.16 9.3 1.15 3.36 2.29 3.63 6.16 2 6.88s-3.89-.27-5.68-1.41Zm-48.71-45.12c.66.7 3 2.42 4 5a11.41 11.41 0 0 1 1 5.61 12.4 12.4 0 0 0 2.28-5.95c.49-3.41-.93-7.8-2.43-9.08-2.72-3-6.58-2.76-7.06-1s.86 3.8 2.21 5.42Z"/><path class="cls-4" d="M751.4 451.42c.94.49 4.2 1.39 5.84 3.85a9.89 9.89 0 0 1 2 5.83c-.17.16 2.33-3.6 2.22-7.62.23-4-2.14-8.3-4.24-9.09-3.88-2.21-8.85-.24-9.26 1.92s1.5 3.89 3.44 5.11Zm-11.68 22.02c1 .33 4.37.67 6.4 2.81a9.86 9.86 0 0 1 2.92 5.42c-.14.18 1.69-3.94.91-7.89-.44-4-3.51-7.82-5.71-8.25-4.19-1.52-8.76 1.26-8.8 3.46s2.16 3.58 4.28 4.45Zm34.57 15.34c.74.45 3.34 1.37 4.54 3.46a8.24 8.24 0 0 1 1.27 4.86 13.53 13.53 0 0 0 2.24-6.07c.41-3.26-1.28-6.88-2.94-7.64-3-2-7.18-.7-7.64 1s1.02 3.29 2.53 4.39Zm18-61.25a8.64 8.64 0 0 0-3.11-2.21 6.7 6.7 0 0 0-3.35-.38 7.43 7.43 0 0 1 3.43-1.58c2-.42 4.63.26 5.45 1.1 1.89 1.49 1.88 3.8.86 4.15s-2.27-.34-3.28-1.08Z"/><path class="cls-4" d="M788.1 418.17a8.93 8.93 0 0 1-.1 3.83 6.85 6.85 0 0 1-1.75 2.89 7.36 7.36 0 0 0 3.33-1.76c1.56-1.32 2.63-3.83 2.47-5 0-2.41-1.85-3.81-2.75-3.22s-1.17 2.01-1.2 3.26Zm33.02 51.46a9 9 0 0 0-3.11-2.21 6.84 6.84 0 0 0-3.35-.38 7.34 7.34 0 0 1 3.42-1.57c2-.43 4.63.25 5.45 1.09 1.89 1.5 1.88 3.8.86 4.15s-2.27-.34-3.27-1.08Z"/><path class="cls-4" d="M816.06 460.19a9.06 9.06 0 0 1 .16 3.82 6.92 6.92 0 0 1-1.51 3 7.46 7.46 0 0 0 3.18-2c1.44-1.44 2.31-4 2.05-5.19-.23-2.4-2.16-3.64-3-3s-.94 2.12-.88 3.37Zm-22.77 54.35c.14.88 1.06 3.43.49 6a10.69 10.69 0 0 1-2.15 4.82 11.52 11.52 0 0 0 4.83-3.37c2.15-2.34 3.34-6.45 2.87-8.22-.51-3.74-3.61-5.55-4.88-4.46s-1.35 3.29-1.16 5.23Zm-18.81 6.76c.14.88 1 3.43.49 6a10.69 10.69 0 0 1-2.15 4.82 11.52 11.52 0 0 0 4.83-3.37c2.15-2.35 3.34-6.45 2.86-8.22-.5-3.74-3.6-5.56-4.88-4.46s-1.34 3.28-1.15 5.23Zm-19.11 8.55c.14.87 1 3.43.49 5.95a10.72 10.72 0 0 1-2.16 4.82 11.45 11.45 0 0 0 4.83-3.37c2.16-2.35 3.35-6.45 2.87-8.23-.51-3.73-3.6-5.55-4.88-4.46s-1.35 3.34-1.15 5.29Z"/><path class="cls-4" d="M798.91 532.17c-.39-.72-1.13-3.11-2.95-4.66a9.83 9.83 0 0 0-4.27-2.34 10.61 10.61 0 0 1 5.43-.23c2.9.53 6.06 2.89 6.69 4.46 1.71 3 .44 6.11-1.11 6s-2.85-1.68-3.79-3.23Zm-19.57 6.95c-.38-.72-1.13-3.11-3-4.66a9.78 9.78 0 0 0-4.27-2.34 10.63 10.63 0 0 1 5.44-.23c2.89.53 6.05 2.89 6.69 4.46 1.7 3 .43 6.11-1.12 6s-2.8-1.68-3.74-3.23ZM813.81 525a8.18 8.18 0 0 0-2.46-2.53 6.33 6.33 0 0 0-3-.91 6.72 6.72 0 0 1 3.38-.86c1.88-.06 4.18 1 4.78 1.91 1.47 1.68 1.08 3.78.1 3.93s-2.01-.68-2.8-1.54Z"/><path class="cls-4" d="M811.55 515.79a8.08 8.08 0 0 1-.78 3.46 6.45 6.45 0 0 1-2.07 2.34 7 7 0 0 0 3.33-1c1.64-.95 3-3.06 3.08-4.15.38-2.2-1.05-3.78-2-3.39s-1.32 1.61-1.56 2.74Z"/><path class="cls-8" d="M711.91 270.11a1.83 1.83 0 0 0 1.84-2.21c-.47-1.73-.9-3.46-1.34-5.19-1-3.83-1.13-3.94-.87-4.27.64-.77 2.19.13 2.72.51 1.2.85 2.18 2 3.54 2.61 2.65 1.17 5.28-.34 4.85-3.37-.39-2.78-.95-5.55-1.52-8.31 2.77 1.49 5.51 3.05 8.3 4.49a1.24 1.24 0 0 0 1.85-1.3c-.29-2.44-1.17-9.67-1.46-12-.08-.62-.76-3.45-.14-3.76s2.42.88 2.86 1.08c2.46 1.14 3.34 1.51 11.42 5a1.45 1.45 0 0 0 1.85-1.71c-3.42-9.92-2.17-10.36-3.92-12.12a.69.69 0 0 0-1.15.25c-.55 1.17-.6 1.49.45 6.05.27 1.17.57 2.34.89 3.51-9.72-4.46-12.07-5.82-14.12-3.95-1.42 1.3-1.09 1.87.61 15.54-2.83-1.71-5.74-3.23-8.65-4.82a1.41 1.41 0 0 0-2.11 1.48c1.46 9.94 1.9 10.14 1.79 11 0 0 .5.3-.28 0-1.31-.53-3.21-3.23-5.88-3.7-2.35-.41-5.07.8-5.29 3.43-.13 1.53.25 2.2 1.52 7.81a36.31 36.31 0 0 0-8.68.23 5.75 5.75 0 0 0-3.18 1.32 1.52 1.52 0 0 0 .56 2.54c3.05.75 5.05-1.18 13.54-.14Z"/><path class="cls-9" d="M758.06 310.12a46.19 46.19 0 0 1 1.8-7.84c.17-.5.36-1.47 1-1.64 1.46-.39 2.67 2.27 7.1 4.72 1.92 1.06 5.8 3.42 7.52.93.89-1.28 1.12-3.16 1.55-4.62.33-1.12.7-2.22 1-3.33 7 4.46 6.47 4.78 8.44 4.54a1 1 0 0 0 .81-1.19c-.53-1.88-.46-1.37-9.29-7.08a1.57 1.57 0 0 0-2.36.77c-.44 1.51-2.08 8.46-2.42 9.28-.06-.08-.45-.12-.53-.15-3.18-1.06-5.53-3-8.09-5.1-2.09-1.69-5.33-2.68-7 .15-.9 1.54-1.75 5-2.29 7.72-4.24-2.89-8.46-5.81-12.71-8.68a1.75 1.75 0 0 0-2.61.85c-.7 3.12-1.5 6.2-2.33 9.28a29.3 29.3 0 0 1-6.54-6.23c-1.37-1.78-4.31 0-.56 4.24a28.68 28.68 0 0 0 7.17 6.16 1.76 1.76 0 0 0 2.62-.85c.91-3 1.68-6.1 2.39-9.18 4.26 2.83 8.55 5.61 12.8 8.44a1.61 1.61 0 0 0 2.53-1.19Z"/><path class="cls-10" d="M756 376.29a1.74 1.74 0 0 0 1 2.13 38.51 38.51 0 0 0 12.74 4.27c2.36.28 2.56-3.3.29-3.72a46.75 46.75 0 0 1-10.52-3 37.56 37.56 0 0 1 3.33-7.33A1.79 1.79 0 0 0 762 366c-2.8-.75-13.48-3.27-13.61-3.18a.51.51 0 0 0 .08-.28c.13-1.18 2.08-4.73 2.51-6.49.48-2-1.89-3.46-3.42-4.07-3.09-1.26-7.29 0-10-2.17s2.11-5.74.8-10.11c-1-3.36-4.45-3.47-9.76-4-1.3-.13-2.58-.24-3.56.78a.9.9 0 0 0-.2 1c1.09 1.86 3.1 1.76 7.91 2.37.62.08 1.71 0 2.1.61 1.3 2-2.41 5.16-1.35 9.1.82 3.08 3.88 4.51 6.69 5 2.21.37 5.2-.08 7.14 1.33-.67 1.81-1.4 3.62-1.92 5.48-.58 2 0 3.73 2 4.5a56.25 56.25 0 0 0 6.89 1.8c1.53.38 3.05.77 4.58 1.13a42.42 42.42 0 0 0-2.88 7.49Zm-88.79-154.16c-9.08-13.43-17.84-6.38-15.6-1.27a3.49 3.49 0 0 0 5.47 1.54 1.44 1.44 0 0 0-.81-2.48c-1 0-.93-1.12.19-1.23 1.5-.16 2.83 1.31 3.81 2.26 2.26 2.23 5.23 5.08 4.69 8.59-.82 5.24-7.53 9.05-14.24 3.85-9.68-7.49-3.83-25.24 8.66-24.76a17.14 17.14 0 0 1 15.11 11.31c.46 1.24 2.16.46 2.06-.68-.8-8.64-9.77-14.51-18-14.11-8.45.4-14.67 7.33-15.85 15.47-1.23 8.54 3.74 17.43 12.53 19.1 9.63 1.83 18.33-8.2 11.98-17.59Z"/><path class="cls-4" d="M742.47 402c-1.55-1.95-5.35-4-7.46-1.72a2.32 2.32 0 0 0 .21 3.59c1.27.88 2.81.52 3.51 2.14.61 1.4-.44 2.84-1.59 3.59-3.51 2.28-8.77-.3-11.37-2.92a7.86 7.86 0 0 1 3.44-13.27c2-.57 4-.22 6-.1 1.11.07 2.1-1.43 1.17-2.31-3.59-3.39-9.61-2.2-13.19.64a12.59 12.59 0 0 0-3.95 13c1.45 5.1 6.3 8.87 11.25 10.28 10.28 2.85 17.01-6.64 11.98-12.92Z"/><path class="cls-7" d="M270.39 313.55a40.23 40.23 0 0 0-3.63-19.28C264.24 289 258 286 252.3 286c-18.08 0-20.38 24-31.89 33.34-3.52 2.83-7.45 5.14-10.78 8.2-12.29 11.3-6.75 32.22 4.53 42.13C222 376.51 234.3 380.42 244 375c5-2.8 8.86-7.46 11.59-12.57 3.87-7.25 6.36-15.62 9.11-23.35 2.88-8.18 5.3-16.75 5.69-25.53Z"/><path class="cls-11" d="M231.61 316.28s-13.28-23.89-16.51-29-11.65-25.25-11.95-26 5.8-10.35 4.44-10.67-2.87 5-4.32 4.39-5.7-13.55-6.52-12.91c-1.55 1.2 2.28 8 1.46 8.44s-3.33-7.49-5-7.26 3.08 7.26 2.63 7.88-5.34-6-6.22-4.59c-.48.77 4.49 5.78 3.54 6.25s-5.38-2.77-5.85-1.83 4.09 2.21 5.45 4.72 3.69 3.6 4.65 8.26 2.4 21.51 7.34 29.92 15.79 27 15.79 27Z"/><path class="cls-12" d="m301.89 404.18-20.65-15.81s-2.08-14.74-4.86-27.83c-3.48 1-6.63 3.73-10.12 4.69l5.25 29.3 27.07 14 7.64 9.86 1.78-10.11Z"/><path class="cls-8" d="M273.34 345.54c-5.64-17.19-12-16.46-12-16.46l4.88 36.15c3.49-1 8-3.09 11.52-4.08a160.27 160.27 0 0 0-4.4-15.61Z"/><path class="cls-13" d="M213.87 526.24s-1.28 8.89-3.47 11.76a22.75 22.75 0 0 0-3 3.92c-1.37 2.7-.61 6.74.4 9 .52 1.14 0 1.13 1.15 1.5a7.25 7.25 0 0 0 8.72-4.12 21 21 0 0 0 1.72-7.57c.37-8.07 2.87-12.17 2.87-12.17Zm38.34 4.07s.79 10 .15 13.27c-.34 1.75-2.25 5.34-1.37 7a4.38 4.38 0 0 0 1.87 2.05l22.63.37c1.23 0 .42-.78-.58-1.52-1.62-1.2-2.94-2-8.13-4.52-.34-.17-1.58-1-2-1.23a15.49 15.49 0 0 1-3.24-2.88c-1.62-1.82-1.77-10.64-1.77-10.64Z"/><path class="cls-14" d="M269.9 397.11s2.85 16.27 1 26.94S260 533.58 260 533.58l-10 .57s-2.09-41.3-1.71-47 3.33-15.35 3.33-15.35l-1-33.35 12.59-43.8Z"/><path class="cls-15" d="M240.56 393.69s-7.86 11.89-9.73 21.74 1.38 40.1-2.22 53c-2 7-9.34 17.77-10.46 26.79s-5.53 32.67-5.53 32.67l10 2 23.19-59L264 417.48l4.63-27.48Z"/><path class="cls-16" d="M246.93 326s-10.41-.67-14.53 3.84 9.14 40.21 9.88 46-3.81 21-3.81 21 24.44 4.95 31.43.3c0 0 .75-41.3 0-45.4s-7-20.79-8.48-22.43-14.49-3.31-14.49-3.31Z"/><path class="cls-13" d="M250.39 312s0 .31-.15.84c-.46 2.51-2.25 10.86-3.46 13.15-1.46 2.78 5 11.62 11.21 10.54 1.84-.32-1.57-8.12-1.4-9 .31-1.58.74-3.74 1.17-6 .25-1.25.5-2.51.73-3.7.66-3.38 1.21-6.15 1.21-6.15Z"/><path class="cls-9" d="M250.24 312.85c.1-.53.15-.84.15-.84l9.31-.23s-.55 2.77-1.21 6.15c-.23 1.18-.48 2.44-.72 3.68a8.66 8.66 0 0 1-4.45-2.24 11.79 11.79 0 0 1-3.36-5c.11-.62.21-1.13.28-1.52Z"/><path class="cls-13" d="M256.65 290.74a8.35 8.35 0 0 0-7.13 3.07c-2.75 3.57-5.72 14.63 1.11 20.65s13.58-.8 14.58-8 1.39-15.98-8.56-15.72Z"/><path class="cls-13" d="M267.23 306.34c-.81 1.59-2.18 2.48-3.05 2s-.92-2.21-.11-3.8 2.19-2.48 3.06-2 .92 2.21.1 3.8Z"/><path class="cls-7" d="M257.14 289.56s-5.86 10.52-10 11-4.74 6.08-4.74 6.08 1.5-12.88 5.65-15.36a15.28 15.28 0 0 1 9.09-1.72Z"/><path d="M218.39 546.48c-5.43 1-9-2.2-10.93-4.59-1.39 2.71-2.06 6.76-1 9 .89 2 3.51 1.9 5.57 2a5.38 5.38 0 0 0 4.94-3 17.41 17.41 0 0 0 1.42-3.41Zm46.37-.77a20.44 20.44 0 0 1-12.89-.51c-.64 1.82-1.48 4.1-1 5.42.55 1.61 1.34 2 2 2 5.46.14 20 .34 24.19.4a.69.69 0 0 0 .53-1.13c-1.04-1.25-12.39-5.89-12.83-6.18Z" style="fill:#b75742"/><path class="cls-13" d="M248.19 303.2c.34 1.87-.34 3.58-1.53 3.83s-2.43-1.07-2.77-2.94.35-3.58 1.54-3.82 2.42 1.07 2.76 2.93Z"/><path class="cls-8" d="M227.94 308.54s14.69 15.88 16.87 22.29-2.13 15.56-8.09 16-19.21-28.2-19.21-28.2Z"/><rect class="cls-8" x="475.68" y="265.16" width="203.65" height="285.87" rx="37.79"/><path class="cls-10" d="M494.02 288.67h168.9v43.61h-168.9z"/><path style="opacity:.5;mix-blend-mode:multiply;fill:#3cb4c5" d="M498.5 294.95h164.42v-6.28h-168.9v43.61h4.48v-37.33z"/><rect class="cls-9" x="494.02" y="344.72" width="48.46" height="15.71" rx="2.91"/><rect class="cls-9" x="554.24" y="344.72" width="48.46" height="15.71" rx="2.91"/><rect class="cls-9" x="614.46" y="344.72" width="48.46" height="15.71" rx="2.91"/><rect class="cls-9" x="494.02" y="372.87" width="37.5" height="35.22" rx="6.51"/><rect class="cls-16" x="537.82" y="372.87" width="37.5" height="35.22" rx="6.51"/><rect class="cls-16" x="581.62" y="372.87" width="37.5" height="35.22" rx="6.51"/><rect class="cls-9" x="494.02" y="416.29" width="37.5" height="35.22" rx="6.51"/><rect class="cls-16" x="537.82" y="416.29" width="37.5" height="35.22" rx="6.51"/><rect class="cls-16" x="581.62" y="416.29" width="37.5" height="35.22" rx="6.51"/><path class="cls-16" d="M655.28 372.87h-22.22a7.66 7.66 0 0 0-7.65 7.67v63.3a7.66 7.66 0 0 0 7.65 7.67h22.22a7.65 7.65 0 0 0 7.64-7.67v-63.3a7.65 7.65 0 0 0-7.64-7.67Z"/><rect class="cls-9" x="494.02" y="459.71" width="37.5" height="35.22" rx="6.51"/><rect class="cls-16" x="537.82" y="459.71" width="37.5" height="35.22" rx="6.51"/><rect class="cls-16" x="581.62" y="459.71" width="37.5" height="35.22" rx="6.51"/><rect class="cls-16" x="625.41" y="459.71" width="37.5" height="35.22" rx="6.51"/><rect class="cls-9" x="494.02" y="503.13" width="37.5" height="35.22" rx="6.51"/><rect class="cls-16" x="537.82" y="503.13" width="37.5" height="35.22" rx="6.51"/><rect class="cls-16" x="581.62" y="503.13" width="37.5" height="35.22" rx="6.51"/><rect x="625.41" y="503.13" width="37.5" height="35.22" rx="6.51" style="fill:#e87b50"/><path class="cls-2" d="M519.19 468.07v1.78L510.54 488h-2.79l8.63-17.65v-.06h-9.73v-2.24ZM550 483c0-2.52 1.49-4.3 3.94-5.35v-.09a4.94 4.94 0 0 1-3.15-4.48c0-3.16 2.66-5.31 6.15-5.31 3.86 0 5.78 2.42 5.78 4.91a5.07 5.07 0 0 1-3.27 4.67v.09c2.48 1 4 2.73 4 5.16 0 3.47-3 5.8-6.76 5.8-4.18-.04-6.69-2.53-6.69-5.4Zm10.7-.13c0-2.42-1.68-3.59-4.37-4.36-2.33.68-3.58 2.21-3.58 4.12a3.68 3.68 0 0 0 4 3.8c2.4-.04 3.96-1.54 3.96-3.6Zm-7.4-10c0 2 1.5 3.07 3.79 3.68 1.72-.58 3-1.81 3-3.62a3.1 3.1 0 0 0-3.36-3.26 3.17 3.17 0 0 0-3.42 3.19Zm10.17 47.85c0 6.78-2.51 10.53-6.92 10.53-3.88 0-6.51-3.66-6.57-10.26s2.87-10.37 6.91-10.37c4.19 0 6.58 3.74 6.58 10.1Zm-10.8.3c0 5.19 1.59 8.14 4 8.14 2.75 0 4.07-3.23 4.07-8.32 0-4.91-1.26-8.14-4-8.14-2.36 0-4.07 2.89-4.07 8.3Zm43.57-34.9a11.44 11.44 0 0 0 2.17-.09 7.49 7.49 0 0 0 4.16-1.94 8.77 8.77 0 0 0 2.63-5.31h-.09a6 6 0 0 1-10.56-4 6.83 6.83 0 0 1 6.8-7.09c4.07 0 6.57 3.31 6.57 8.41 0 4.39-1.46 7.46-3.42 9.36a9.86 9.86 0 0 1-5.78 2.67 12.17 12.17 0 0 1-2.48.16Zm1-11.48c0 2.48 1.5 4.23 3.82 4.23a4.45 4.45 0 0 0 3.92-2.09 1.79 1.79 0 0 0 .24-1c0-3.4-1.25-6-4.07-6-2.31.01-3.93 2.03-3.93 4.86Zm-82.63-30.89v-5.43h-9.24v-1.78l8.87-12.74h2.9v12.4h2.79v2.12h-2.79v5.43Zm0-7.55v-6.66c0-1.05 0-2.09.09-3.13h-.09c-.62 1.16-1.11 2-1.66 2.94l-4.86 6.79v.06Zm47.51-10.13h-7.59l-.76 5.12a10.88 10.88 0 0 1 1.62-.12 8.33 8.33 0 0 1 4.28 1.08 5.69 5.69 0 0 1 2.85 5.12c0 3.9-3.09 6.82-7.41 6.82a9.73 9.73 0 0 1-5-1.23l.67-2.06a8.91 8.91 0 0 0 4.25 1.11c2.54 0 4.72-1.66 4.72-4.33s-1.75-4.42-5.73-4.42a21 21 0 0 0-2.75.21l1.29-9.57h9.51Zm43.88-.37a9.9 9.9 0 0 0-2 .12 8.11 8.11 0 0 0-6.92 7.09h.1a5.9 5.9 0 0 1 4.8-2.3c3.52 0 6 2.55 6 6.45 0 3.65-2.48 7-6.61 7s-7-3.32-7-8.51a12.54 12.54 0 0 1 3.37-9 10.79 10.79 0 0 1 6.36-2.95 13.24 13.24 0 0 1 2-.15Zm-.77 11.51c0-2.85-1.62-4.57-4.1-4.57a4.42 4.42 0 0 0-3.85 2.45 2.27 2.27 0 0 0-.31 1.2c.06 3.29 1.56 5.71 4.38 5.71 2.35 0 3.91-1.93 3.91-4.79Zm-93.1-53.32h-.06l-3.46 1.87-.52-2.06 4.34-2.33h2.3v19.95h-2.6Zm38.12 17.43v-1.65l2.11-2.06c5.08-4.85 7.37-7.43 7.41-10.44 0-2-1-3.9-3.95-3.9a6.71 6.71 0 0 0-4.22 1.73l-.86-1.9a8.69 8.69 0 0 1 5.63-2c4.28 0 6.09 3 6.09 5.8 0 3.69-2.66 6.67-6.86 10.72L554 399v.06h9v2.24Zm45.07-3.1a8.86 8.86 0 0 0 4.4 1.26c3.46 0 4.53-2.21 4.5-3.87 0-2.79-2.54-4-5.14-4h-1.5v-2h1.5c2 0 4.44-1 4.44-3.38 0-1.6-1-3-3.49-3a7.34 7.34 0 0 0-4 1.32l-.7-2a9.41 9.41 0 0 1 5.2-1.54c3.92 0 5.69 2.34 5.69 4.76 0 2.06-1.22 3.81-3.67 4.7v.06a5.19 5.19 0 0 1 4.44 5.13c0 3.19-2.48 6-7.25 6a10 10 0 0 1-5.17-1.35Z"/><ellipse class="cls-2" cx="512.77" cy="528.28" rx="2.4" ry="2.41"/><path class="cls-2" d="M658.41 413.46h-12.62v-12.67h-3.25v12.67h-12.62v3.26h12.62v12.66h3.25v-12.66h12.62v-3.26zm-49.64 114.78-6.68-6.71 6.68-6.7-1.72-1.73-6.68 6.71-6.68-6.71-1.72 1.73 6.68 6.7-6.68 6.71 1.72 1.72 6.68-6.7 6.68 6.7 1.72-1.72zm24.05-51.61h21.14v3.25h-21.14zm.78 37.54h21.14v3.25H633.6zm0 8.18h21.14v3.25H633.6z"/><path class="cls-9" d="M521.69 107.31h-.05c-.52-.19-1-.36-1.58-.51l-.55-.16-.59-.14-.59-.14-.57-.11-.64-.12-.55-.08-.7-.09-.51-.06-.8-.06H319.72a25.07 25.07 0 0 0-2.61.26c-.43.07-.85.14-1.27.23a26 26 0 0 0-20.53 22.78c-.08.87-.13 1.75-.13 2.65v393.4a25.94 25.94 0 0 0 17.07 24.41l.13.05c.49.18 1 .33 1.5.48l.55.16.58.14.6.14.57.11.64.12.54.08.7.09.51.06.81.06h193.51a25.64 25.64 0 0 0 2.64-.14 26 26 0 0 0 23.23-25.82V131.72a26 26 0 0 0-17.07-24.41Z"/><path style="fill:#f3fcff" d="M307.72 141.14h218.5V515.7h-218.5z"/><rect class="cls-2" x="370.4" y="124.68" width="93.5" height="4.69" rx=".87"/><ellipse cx="416.84" cy="533.75" rx="10.73" ry="10.77" style="opacity:.3;fill:#daeef7"/><path d="M307.72 499.99h218.5v15.72h-218.5zm0-358.85h218.5v19.88h-218.5z" style="opacity:.2;fill:#3cb4c5"/><path class="cls-23" d="M351.77 150.3H162a11.89 11.89 0 0 0-11.87 11.91v78.57A11.89 11.89 0 0 0 162 252.69h149.4c6 8.47 17 23.63 18 23.63s-.83-14.32-2.06-23.63h24.45a11.89 11.89 0 0 0 11.87-11.91v-78.57a11.89 11.89 0 0 0-11.89-11.91Z"/><path class="cls-24" d="M343.94 129.92H154.18a11.89 11.89 0 0 0-11.87 11.91v78.57a11.89 11.89 0 0 0 11.87 11.91h149.39c6.05 8.47 17 23.63 18 23.63s-.84-14.32-2.07-23.63h24.46a11.88 11.88 0 0 0 11.84-11.91v-78.57a11.88 11.88 0 0 0-11.86-11.91Z"/><rect class="cls-2" x="161.93" y="155.4" width="93.56" height="5.19" rx=".96"/><rect class="cls-2" x="161.93" y="169.08" width="40.3" height="5.19" rx=".96"/><rect class="cls-2" x="206.78" y="169.08" width="125.43" height="5.19" rx=".96"/><rect class="cls-2" x="265.05" y="155.4" width="67.54" height="5.19" rx=".96"/><rect class="cls-2" x="161.93" y="195.92" width="170.66" height="5.19" rx=".96"/><rect class="cls-2" x="161.93" y="182.77" width="88.16" height="5.19" rx=".96"/><rect class="cls-2" x="255.22" y="182.77" width="77.38" height="5.19" rx=".96"/><rect class="cls-2" x="499.38" y="102.88" width="58.33" height="4.63" rx=".86" transform="rotate(180 528.54 105.2)"/><path class="cls-23" d="M482.24 89.84h169.53a10.62 10.62 0 0 1 10.61 10.64v70.2a10.63 10.63 0 0 1-10.61 10.64H518.3c-5.4 7.56-15.19 21.1-16.06 21.1s.75-12.79 1.85-21.1h-21.85a10.63 10.63 0 0 1-10.6-10.64v-70.2a10.62 10.62 0 0 1 10.6-10.64Z"/><path class="cls-24" d="M489.24 71.63h169.53a10.61 10.61 0 0 1 10.6 10.64v70.2a10.62 10.62 0 0 1-10.6 10.64H525.3c-5.4 7.56-15.19 21.1-16.06 21.1s.75-12.79 1.85-21.1h-21.85a10.63 10.63 0 0 1-10.6-10.64v-70.2a10.62 10.62 0 0 1 10.6-10.64Z"/><rect class="cls-2" x="595.79" y="94.39" width="51.83" height="4.63" rx=".86" transform="rotate(180 621.7 96.71)"/><rect class="cls-2" x="612.61" y="109.53" width="35.01" height="4.63" rx=".86" transform="rotate(180 630.11 111.845)"/><rect class="cls-2" x="565.3" y="109.53" width="43.08" height="4.63" rx=".86" transform="rotate(180 586.84 111.845)"/><rect class="cls-2" x="499.63" y="109.53" width="60.21" height="4.63" rx=".86" transform="rotate(180 529.735 111.845)"/><rect class="cls-2" x="499.38" y="94.39" width="86.93" height="4.63" rx=".86" transform="rotate(180 542.84 96.71)"/><rect class="cls-2" x="499.38" y="139.18" width="148.24" height="4.63" rx=".86" transform="rotate(180 573.495 141.495)"/><rect class="cls-2" x="571.04" y="124.53" width="76.58" height="4.63" rx=".86" transform="rotate(180 609.325 126.845)"/><rect class="cls-2" x="499.38" y="124.53" width="67.86" height="4.63" rx=".86" transform="rotate(180 533.305 126.845)"/><path class="cls-8" d="M362.38 283.14s-42.35 6.11-35.88 47c6 38.11 42.35 30.37 51.68 28.46s-15.8-75.46-15.8-75.46Z"/><path class="cls-25" d="M378.18 358.58c4.34-.89 1.22-17.3-3.37-34.6-15.59 3.06-33 6.47-47.7 9.38 7.53 34.42 42.02 27.08 51.07 25.22Z"/><path class="cls-5" d="M386.74 365.65s9.31 33.21 6.86 59c-2.29 24.07 1.14 28.08 10.09 27.32s30.64-6.12 31-14.71-3.62-52.71-18.65-76.4-29.3 4.79-29.3 4.79Z"/><path class="cls-6" d="M401.2 351.8c-6 4-14.46 13.85-14.46 13.85s9.31 33.21 6.86 59c-2.29 24.07 1.14 28.08 10.09 27.32a75.08 75.08 0 0 0 13.3-2.63c3.57-59.13-11.69-90.85-15.79-97.54Z"/><path class="cls-5" d="M490.67 202.64s-70.23 51.14-92.93 66.61L384.46 289l9.42 57.59 22.7 11.17 110.92 21.93-2.57-12.47-20.13-55.86-10.27-63.6-3-39.1Z"/><path class="cls-6" d="m504.8 311.36-2.69-16.67-112.25 27.33 4.02 24.58 22.7 11.17 110.92 21.92-2.57-12.47-20.13-55.86z"/><path class="cls-4" d="M397.74 269.25s-9.28 48.84 18.84 88.52a4.92 4.92 0 0 1-1.86 6l-20.93 5.35s-9.71 3.43-17.89-10.51-22.66-45.26-14.09-79.83c0 0 2.09-9.36 13.51-11.08l15.23-2.86s6.76-1.08 7.19 4.41Z"/><path class="cls-26" d="M490.67 202.64s18.27-13.47 28.84-13.18 21.13 14.32 28 25.78 24.84 56.44 26.55 86.81 1.43 73.63-13.42 78.78-33.12-1.14-33.12-1.14-24-20.63-38-84.8 1.15-92.25 1.15-92.25Z"/><path class="cls-4" d="M550.11 382.55s17.08-22.2 8.37-82.14c-13.7-94.38-48.25-108.66-48.25-108.66s-25.57 19.49-1.14 110.69c20.13 75.16 41.02 80.11 41.02 80.11Z"/><path class="cls-8" d="M500.91 264.06a346.24 346.24 0 0 0 8.18 38.38c2 7.29 3.9 13.9 5.85 19.93 10.62-3.7 27.8-12.94 20.46-36.4-6.79-21.73-24.49-23.06-34.49-21.91Z"/><path class="cls-25" d="M509.09 302.44c2 7.29 3.9 13.9 5.85 19.93 10.47-3.64 27.32-12.69 20.75-35.43l-28.87 6.67c.71 2.87 1.46 5.81 2.27 8.83Z"/><path d="M416.58 357.77a108.42 108.42 0 0 1-16.86-38.22l-37.1 7a127.21 127.21 0 0 0 13.28 32c8.18 13.94 17.89 10.51 17.89 10.51l20.93-5.35a4.92 4.92 0 0 0 1.86-5.94Z" style="opacity:.3;mix-blend-mode:multiply;fill:#3c8f7c"/><path class="cls-28" d="m774.52 161.6-.17 18.4L786 169l36.75-25-30 6.54s-15 5.68-15.74 6.54a38.19 38.19 0 0 0-2.49 4.52Z"/><path class="cls-9" d="m759.75 152.33 63.01-8.26-48.24 17.53-14.77-9.27z"/><path class="cls-9" d="m797.03 177.3-18.16-11.27 43.89-21.96-25.73 33.23z"/><path d="M694.62 237.54a41.32 41.32 0 0 1 .28-4.43c.16-1.35.4-2.73.69-4.08l1.47.32a38.6 38.6 0 0 0-.67 3.94 40.8 40.8 0 0 0-.28 4.26v1.25h-1.5q0-.63.01-1.26Zm4.1-17.83a58.87 58.87 0 0 1 4.82-8.53l1.24.85a54.87 54.87 0 0 0-4.69 8.3Zm46.74-8.8-.28-.13.67-1.35.23.12h.15a6.92 6.92 0 0 0 4.07-1 6.36 6.36 0 0 0 2.06-3l1.42.49a8 8 0 0 1-2.57 3.73 8.35 8.35 0 0 1-5.15 1.33 1.73 1.73 0 0 1-.6-.19Zm-35.83-7.39a80.78 80.78 0 0 1 7-6.77l1 1.15a76.38 76.38 0 0 0-6.91 6.64Zm28.46-3.5a18.85 18.85 0 0 1 0-4.44 20.56 20.56 0 0 1 .45-2.5l1.45.36a19.77 19.77 0 0 0-.42 2.31 16.87 16.87 0 0 0 0 4.08 14.6 14.6 0 0 0 .63 2.75l-1.41.48a15.25 15.25 0 0 1-.7-3.06Zm6.21-8.47-.2-.07.46-1.43.22.07a15.12 15.12 0 0 1 7.77 5.93l-1.26.81a13.53 13.53 0 0 0-6.99-5.31Zm-19.08.31a34.09 34.09 0 0 1 6-2.21c1.22-.21 2.34-.37 3.43-.47l.14 1.5c-1.05.1-2.13.24-3.31.45a30.08 30.08 0 0 0-5.7 2.1Zm17.37-7.81a33.35 33.35 0 0 1 6.58-7.35l1 1.16a31.77 31.77 0 0 0-6.28 7ZM758.17 173a28.33 28.33 0 0 1 4.58-1.47l-.33-1.47a30.33 30.33 0 0 0-4.82 1.55Z" style="fill:#6db1b5"/><path class="cls-14" d="m602.43 354.23-.77.69a.94.94 0 0 1-1.33 0l-13.59-15a.94.94 0 0 1 .1-1.32l.77-.69a.93.93 0 0 1 1.32 0l13.6 15a.94.94 0 0 1-.1 1.32Z"/><path class="cls-13" d="M648.52 342c-1.82-1.48-15.87 4.71-15.69 6.86s-9.81 23-9.81 23l-17.25-13.81c-.15-.5-1.79-5.87-1.87-6.83s-3-2.77-4.35-2.51 1.16 2 1.32 2.28c.45.85-1.28 1.17-1.28 1.17s-5-2.75-5.1-4.36-1.13-5-2.21-4.29c-.55.36-.55 2.76-.38 3.9-.32-1.29-.77-2.75-1.21-2.9-.81-.26-1.21.77-1.06 1.27s1.45 6 1.84 6.62 8.44 7.11 9.6 8.52c0 0 22.32 25.6 23.91 26.27 1.39.59 6.36-8.23 11.06-14.09s18.16-26.42 12.48-31.1Z"/><path class="cls-12" d="M693.56 530.29s3.06 3 3.13 4.1.27 12.91-1 14-4.93 1.89-3.75 3.13c.9.93 7.77.73 12.33.48 1.33-.07 3-10.72 3.52-12.28.77-2.28 2.63-7.4 1.93-9-.33-.77-2-2.36-4.24-3.84a21 21 0 0 1-4.7-5Z"/><path class="cls-13" d="M661.79 537.28s2.74 7.78 2.74 7.8a54 54 0 0 1 1 5.4c0 4.21-18.92-3.57-14.68-5.44a4.5 4.5 0 0 0 1.72-2.95c.19-2.21-1.6-5-1.6-5Z"/><path class="cls-15" d="M632.11 392.41s-1.38 13.95-1.38 14.16c0 22.56-4.46 66.63-3.61 70.87 2.07 10.34 24.32 63.12 24.32 63.12l12-1.44-15.68-63.19 5.77-25.43 8.16-50.28Z"/><path class="cls-14" d="m672.48 404.75 2.28 13.25 6.17 54.4 23.52 53.17s-3.31 7.74-8.19 8.82l-37.43-54.59-23.25-69.85.82-15.52Z"/><path d="m627.31 359.21 16.68 1.7s.76-13.72.76-20.26c0-7.94-.67-18.17-1.63-17.95-2.68.62-6.29 2.11-8.44 5.07-7.44 10.23-7.37 31.44-7.37 31.44Z" style="fill:#86b1f2"/><path class="cls-24" d="M635.5 339.25c-.35 2.42-6.76 68.24-6.76 68.24 30.37 14.71 47.13 2.62 47.13 2.62s-1-46.22.2-52.51c.78-4.16 1.77-31.82-.92-32.59a66.73 66.73 0 0 0-11.72-2.5c-3.68-.38-18-.61-20.53.26a32.71 32.71 0 0 0-7.4 16.48Z"/><path class="cls-31" d="M705.35 526.83s-7.07 20-9.83 20.94c-.74.25-4.26.9-4.93 2.47a6.77 6.77 0 0 0 0 2h14.73s1.87-8.8 2.6-12.66c0 0 3.9-9.45 3.47-10.31s-6.04-2.44-6.04-2.44Zm-38.73 25.04-2.17-6.87s-4.55 1.93-6.82 1.61a67.91 67.91 0 0 1-6.72-1.61c-9.08 3-16.52 4.46-15.17 6.87h30.88Z"/><path class="cls-13" d="M625 387.28a3.48 3.48 0 0 1-.46-.34c.54-6.45.44-12.69-1.57-14.81 0-.1.49-1 .95-2 2.33 1.81 3.44 6.63 3 14.45a14.13 14.13 0 0 1-.31 1.62c-.7.74-1.31 1.22-1.61 1.08Z"/><path d="M706 408.18a2 2 0 0 0 0-.42c-.45-4.56-4.22-42.83-4.86-44.46-.57-1.47-17.49-25.74-17.49-25.74l-8.31 11.36 16.27 21.78c.36 1.38 6.23 27.22 6.23 27.22s1.2 4.7 1.74 7.53c-.24.68-.49 1.32-.7 1.84a16.9 16.9 0 0 1-1.75 2.83 19.18 19.18 0 0 0-2.08 3.69c-.17.66-.48 2-.66 2.88s-.41 1.8-.45 2.25a4.5 4.5 0 0 1-.53 1.22.73.73 0 0 0 .86 1c.59-.2 1-1 1.33-1.45.8-1.35 1.23-3.81 1.43-3.68s.9 4.31 1 4.78a50.41 50.41 0 0 0 1.43 6.22c.47.89 1.1.74 1.27.18s-.53-7.27-.53-7.27-.08-.87.3-.6 1 6.44 1.26 7.35.86 1.38 1.37.65-.45-7.42-.45-7.42-.12-.83.23-.75.79 5.34 1.07 5.79a.68.68 0 0 0 1.28-.14c.39-.89-.61-6.73-.61-6.73s0-.46.27-.31.91 4.61 1.36 5a.49.49 0 0 0 .7 0c.83-.57-.45-4.81-.43-6.92s-1-4.47-.67-7c-.02-.05.03-.43.12-.68Z" style="fill:#f8a492"/><path class="cls-24" d="m696.83 352.93-14.45 9.74s-8.15-12.16-12.52-16.49c-5.47-5.43 2-22 5.53-21.1 7.89 2.1 21.44 27.85 21.44 27.85Z"/><path class="cls-13" d="m662.37 308.28 2.16 14.29s-7.89 17-12.6 15.55c-3.95-1.24-1.52-16.3-1.52-16.3s2.15-8.09 1.51-12.13 10.45-1.41 10.45-1.41Z"/><path class="cls-9" d="M651.92 309.69c-.65-4.05 10.45-1.41 10.45-1.41l.18 1.19a6.55 6.55 0 0 1-1.2 2 14.64 14.64 0 0 1-9.71 4.41 22.18 22.18 0 0 0 .28-6.19Z"/><path class="cls-13" d="M664.19 288.06c.32-.11 2.52 16.28-1.66 20.79s-12.32 6-15.23 2.43c-3.23-3.93-3.07-21.54 3.42-26.18s13.47 2.96 13.47 2.96Z"/><path class="cls-31" d="M653.2 276.33a18 18 0 0 1 9.46 5.41c2.28.27 5.38 1.54 8.58 6.85 3.93 6.54 1 13.78-3.55 17.33s-4.52 7.66-4.52 7.66l-.72-2.12a12 12 0 0 1-.57-5 9.5 9.5 0 0 1 .74-3c1.1-2.37-2.37-3.95-3.34-5.92-.75-1.52-.79-5-2-7.51l-1.4-1.92s-3.25-2.54-6.43-1.82-2.7-11.29 3.75-9.96Z"/><path class="cls-13" d="M659.49 300.44c0 2 .87 3.64 2 3.66s2.11-1.58 2.14-3.58-.87-3.64-2-3.66-2.1 1.58-2.14 3.58Z"/><path class="cls-2" d="m652.71 305.07-6.3-.33a2.76 2.76 0 0 0 2.79 2.63c3.37.27 3.51-2.3 3.51-2.3Z"/><path class="cls-7" d="m369.9 551.26 3.08-.58-13.3-70.82-3.08.59 13.3 70.81zm-34.32.32h-3.7l13.8-71.72 3.08.59-13.18 71.13zm-34.06 0 3.01.04-13.24-71.44-3.08.59 13.31 70.81z"/><path class="cls-16" d="M315 383.27c-12.2 1.31-28 2.69-43.82 29.66-17.31 29.49-8.2 73.53 5.47 85.76s58.29 27.35 95.81 4.73c0 0 22.66-13.71 11-36.46-17.89-35-15.36-42.31-23.36-56s-19.26-30.48-45.1-27.69Z"/><path class="cls-8" d="M271.14 412.93c10.81-18.41 21.6-24.9 31.23-27.58a81.17 81.17 0 0 0-11.29 15.29c-17.31 29.48-8.2 73.52 5.47 85.76 12.12 10.85 48.59 24 82.86 11a34.84 34.84 0 0 1-7 6c-37.52 22.62-82.15 7.51-95.81-4.73s-22.77-56.25-5.46-85.74Z"/><path class="cls-11" d="m354.1 428.08 3.14 9.43-9.55-3.77 6.41-5.66z"/><path class="cls-28" d="M344.26 400c.63 0 2.38.61 4.93 5.43 3.26 6.16 8 24.77 8 24.77L343 435.49l-1.83-3.88-3-29.9s5.91-1.71 6.09-1.71Z"/><path class="cls-9" d="M325.47 397.32c4.06 0 14.12 1.19 18.79 2.68 0 0 3.43 29.48-3.09 51.88-1.46 5 1.21 20.78 1.21 20.78l-42.13-.55s5-38.13 3.11-44.29-1.92-27.62-1.92-27.62l9.46-1.63a94.88 94.88 0 0 1 14.57-1.25Z"/><path class="cls-13" d="M320.56 527.37s.93 10.75 2.64 13.73-.09 8-.18 8.74-3.6 1.69-9.2 1.09-5.5-1.88-5.05-4 3.43-4.76 3.61-6.75-1.71-9.13-1.71-9.13Z"/><path class="cls-26" d="M337.62 463.78s29.08-1.61 35.57 2.32-1.17 12-1.17 12-23.67 10.29-63.3 12.58c-9.39.54-10.2-24.47-8.44-26.54s37.34-.36 37.34-.36Z"/><path class="cls-31" d="M313.13 551.77c-5.76-.62-5.05-3.44-4.58-5.59.29-1.35 1.94-2.93 2.92-4.43a9.66 9.66 0 0 0 3.85 1.87c2.6.77 6.16-.75 8.43-1.7a28 28 0 0 1 .77 7.43c-.09.71-5.64 3.03-11.39 2.42Z"/><path class="cls-4" d="M316.31 484.59c1.16 8.79 6.91 52.55 6.91 52.55l-13.35 1.65s-16.41-57.12-15.57-65.85 7-9.48 7-9.48 11.93-2.14 15.01 21.13Z"/><path class="cls-13" d="M301 403.48c3.94-1.48 5.87 34 6.4 48.61 7 .67 19.13 0 22.15-.22 1.43-.11 4.71-1.31 6.13-1.49a14.44 14.44 0 0 1 3.48-.17c.26.05 7.53 3 8.15 3.67.77.81 2.86 2.85 2.5 3.73s-4-2.46-4-2.46l-1.78-1c2.22 2.18 6.47 5 5.85 6.08s-4.42-1.89-7.15-3.87c2.34 2.12 5.25 5.9 4.58 6.49s-3.91-3.85-7.45-5.11c-1.31-.47-2.61.83-3.64 1a7.32 7.32 0 0 1-2.67.15l-3.83-1.09c-1.3.12-1.34.89-2.65 1.17-1.53.33-4 .67-6 1.15-11.21 2.74-14.95 4-18.38 4-10.41-.02-11.02-57.12-1.69-60.64Z"/><path class="cls-28" d="M293.51 436.79c-.74-15-.63-33.4 7.75-36.54 3.31-1.25 9.15 6.22 8.1 36.85-4.48.37-11.05.66-15.85-.31Z"/><path class="cls-11" d="M340.43 430.37h-.86l-12.85 31.58.89-.14 12.82-31.44z"/><path class="cls-13" d="M359.59 536.57s-1.17 3.73.92 6.2 10.75 4.89 11.88 6.23a3.74 3.74 0 0 1 1.05 2.48l-24.31-.67.26-7.35 1.12-5.27Z"/><path class="cls-31" d="M362 544s-6.25 2.53-9.27 1-2.93-1.91-3.8-1.35-1.19 7.44-1.19 7.44l27.35.81c1.9 0 2.87-1.45 1.32-2.65a23 23 0 0 0-3-1.77C371.31 546.28 362 544 362 544Z"/><path class="cls-4" d="M358.66 470.68c1.88-4 6.16-9.11 13.68-6 7.17 3 9.1 10.23 6.84 17.68s-17.18 51.2-17.69 57.22l-11.9.07s2.17-34.65 2.7-43c.51-8.09 3.12-19.13 6.37-25.97Z"/><path d="M378 430.36h-39.79a2.6 2.6 0 0 0-2.4 1.62l-12.25 30h-21.92a1.11 1.11 0 0 0-1.11 1.11 1.1 1.1 0 0 0 1.11 1.11H364a4.35 4.35 0 0 0 4-2.58L380.34 434a2.6 2.6 0 0 0-2.34-3.64Z"/><path class="cls-2" d="M356.57 447.82a2.19 2.19 0 1 1-1.65-2.87 2.35 2.35 0 0 1 1.65 2.87Z"/><path class="cls-7" d="M334.92 361.32a29.7 29.7 0 0 1-3.52-1.41 17.68 17.68 0 0 0-4-1.51c-2.22-.34-6-.11-8.14 2.17-2.62 2.85-7.29.51-6.35 15.42 1.07 16.87 10.45 15 10.67 14.73s8.37-10.79 8.37-10.79 2.85 6.22 2.85 6 14.52-19.76.12-24.61Z"/><path class="cls-13" d="m327.8 392 .81 6s1.81 8.69-.52 10.36-9.93-10.6-9.93-10.6l.8-15.28Z"/><path class="cls-9" d="M318.7 387.42a17.31 17.31 0 0 0 9.78 9.66l-.68-5.08-8.84-9.5Z"/><path class="cls-13" d="M327.32 365.85a8 8 0 0 1 9.25 8.13 61.53 61.53 0 0 1-.67 7.73c-1.08 7-5.83 13.09-9 12.54s-11-6.55-9.64-16.45c.89-6.12 4.87-11.11 10.06-11.95Z"/><path class="cls-13" d="M319.47 379a2.34 2.34 0 1 1-1.78-3.16 2.6 2.6 0 0 1 1.78 3.16Z"/><path class="cls-7" d="M317.69 375.82s3.79.94 5.2-1.5 6.45-7.71 12.85-5.53-5.63-5.31-6.15-5.31h-6.66s-4.73 3.9-4.9 4.32-1.54 5.1-1.54 5.1Z"/><path class="cls-2" d="m324.63 386 6.91 1.32a3.08 3.08 0 0 1-3.71 2.11c-3.73-.6-3.2-3.43-3.2-3.43Zm-71.36-76.93 6.9 1.32a3.08 3.08 0 0 1-3.71 2.11c-3.72-.6-3.19-3.43-3.19-3.43Z"/><path class="cls-4" d="M812.53 521a107.94 107.94 0 0 0-17.84 3.19c-10.68 2.8-20.94 6.95-31.05 11.35-5 2.17-10 4.3-14.84 6.68a53.78 53.78 0 0 0-6.67 3.64 74.28 74.28 0 0 0-7.78 6.37l2.32.07a77.24 77.24 0 0 1 15.49-10.1c19.14-9.22 39-18.68 60.38-21a.09.09 0 0 0-.01-.2Z"/></g></g></svg>